<svg
  width="17"
  height="16"
  viewBox="0 0 17 16"
  fill="none"
  xmlns="http://www.w3.org/2000/svg"
>
  <path
    fill-rule="evenodd"
    clip-rule="evenodd"
    d="M9.23537 2.78528L10.4535 5.21892C10.5729 5.45783 10.8034 5.62349 11.0706 5.66183L13.7957 6.05409C14.469 6.15129 14.7369 6.9673 14.2497 7.43486L12.2791 9.32836C12.0854 9.51457 11.9973 9.78223 12.0431 10.0451L12.5081 12.7183C12.6227 13.3796 11.9188 13.8841 11.317 13.5713L8.88137 12.3083C8.64259 12.1844 8.35662 12.1844 8.11715 12.3083L5.68149 13.5713C5.0797 13.8841 4.37586 13.3796 4.49109 12.7183L4.95545 10.0451C5.00126 9.78223 4.91311 9.51457 4.71945 9.32836L2.74886 7.43486C2.26159 6.9673 2.52951 6.15129 3.20281 6.05409L5.92791 5.66183C6.19514 5.62349 6.42628 5.45783 6.54567 5.21892L7.76315 2.78528C8.06439 2.18355 8.93412 2.18355 9.23537 2.78528Z"
    stroke="#E9BF2D"
    stroke-width="0.999917"
    stroke-linecap="round"
    stroke-linejoin="round"
  />
</svg>
