<svg viewBox="0 0 241 44" fill="none" xmlns="http://www.w3.org/2000/svg">
<g filter="url(#filter0_d_1230_15620)">
<path d="M19.4194 25.8064C19.4194 21.6376 22.7989 18.2581 26.9677 18.2581H30.4516C34.6205 18.2581 38 21.6376 38 25.8064V36.8387C38 37.4801 37.4801 38 36.8387 38H20.5806C19.9393 38 19.4194 37.4801 19.4194 36.8387V25.8064Z" fill="#2B4CFF"/>
<path d="M34.5161 10.7097C34.5161 14.2372 31.6565 17.0968 28.129 17.0968C24.6015 17.0968 21.7419 14.2372 21.7419 10.7097C21.7419 7.18218 24.6015 4.32258 28.129 4.32258C31.6565 4.32258 34.5161 7.18218 34.5161 10.7097Z" fill="#2B4CFF"/>
<path d="M2 24.6452C2 20.4763 5.37953 17.0968 9.54839 17.0968H14.1935C18.3624 17.0968 21.7419 20.4763 21.7419 24.6452V36.8387C21.7419 37.4801 21.222 38 20.5806 38H3.16129C2.51993 38 2 37.4801 2 36.8387V24.6452Z" fill="#2B4CFF"/>
<path d="M18.8387 8.96774C18.8387 12.8159 15.7191 15.9355 11.871 15.9355C8.02279 15.9355 4.90323 12.8159 4.90323 8.96774C4.90323 5.11956 8.02279 2 11.871 2C15.7191 2 18.8387 5.11956 18.8387 8.96774Z" fill="#2B4CFF"/>
<path d="M41.4839 30.7211C39.9355 29.8271 39.9355 27.5922 41.4839 26.6983L48.4516 22.6754C50 21.7815 51.9355 22.8989 51.9355 24.6868V32.7325C51.9355 34.5204 50 35.6379 48.4516 34.7439L41.4839 30.7211Z" fill="#2B4CFF"/>
</g>
<path d="M64.2475 28.5H68.5675L69.7915 25.212H76.1275L77.3275 28.5H81.7675L75.2155 11.604H66.8395V14.244H69.7675L64.2475 28.5ZM70.8715 21.948L72.9595 16.116L75.0235 21.948H70.8715ZM89.2818 33.564C93.0978 33.564 96.1698 31.548 96.1698 27.684V16.044H92.2818V17.772C91.7298 16.836 90.4338 15.732 88.4418 15.732C85.2738 15.732 82.8018 18.06 82.8018 21.996C82.8018 25.932 85.2738 28.236 88.4418 28.236C90.2418 28.236 91.4898 27.324 92.1138 26.46V27.612C92.1138 29.82 90.2898 30.516 88.5618 30.516C86.8818 30.516 85.3698 30.036 84.0018 29.1V32.34C85.2738 33.084 86.9538 33.564 89.2818 33.564ZM86.9058 21.996C86.9058 20.076 87.9378 18.876 89.5698 18.876C90.5298 18.876 91.3698 19.188 92.1138 19.86V24.156C91.3698 24.828 90.5298 25.14 89.5698 25.14C87.9378 25.14 86.9058 23.916 86.9058 21.996ZM100.367 28.5H104.447V20.46C105.047 19.884 106.031 19.452 107.519 19.452C108.119 19.452 108.719 19.548 109.079 19.644V16.092C108.863 15.996 108.431 15.924 108.023 15.924C106.031 15.924 104.783 16.956 104.255 18.228V16.044H97.8468V18.684H100.367V28.5ZM117.276 15.732C113.316 15.732 110.292 18.324 110.292 22.26C110.292 26.22 113.316 28.812 117.276 28.812C121.164 28.812 124.212 26.22 124.212 22.26C124.212 18.324 121.164 15.732 117.276 15.732ZM114.396 22.26C114.396 20.364 115.596 18.996 117.276 18.996C118.932 18.996 120.132 20.364 120.132 22.26C120.132 24.18 118.932 25.548 117.276 25.548C115.596 25.548 114.396 24.18 114.396 22.26ZM128.18 28.5H132.428V17.556L137.372 24.756L142.34 17.436V28.5H146.588V11.604H142.076L137.492 18.588L132.812 11.604H125.324V14.34H128.18V28.5ZM163.02 28.284V25.788C162.9 25.86 162.684 25.908 162.468 25.908C162.012 25.908 161.58 25.716 161.58 25.14V20.676C161.58 17.628 159.324 15.732 155.436 15.732C153.396 15.732 151.476 16.26 150.348 16.932V20.148C151.596 19.188 153.204 18.756 154.644 18.756C156.372 18.756 157.596 19.38 157.596 20.7V21.228C156.876 21.036 155.94 20.916 155.028 20.916C152.052 20.916 149.268 22.068 149.268 24.9C149.268 27.156 151.284 28.812 153.9 28.812C155.988 28.812 157.092 28.068 157.764 27.156C158.196 28.26 159.444 28.812 160.836 28.812C161.964 28.812 162.804 28.452 163.02 28.284ZM153.348 24.684C153.348 23.604 154.596 23.292 155.628 23.292C156.324 23.292 157.02 23.388 157.596 23.556V24.948C156.972 25.62 156.228 26.004 155.22 26.004C154.092 26.004 153.348 25.476 153.348 24.684ZM164.747 24.396V27.564C165.731 28.26 167.963 28.812 170.315 28.812C173.579 28.812 176.099 27.3 176.099 24.708C176.099 22.188 173.891 21.252 171.563 20.796L170.339 20.556C169.115 20.316 168.563 20.124 168.563 19.62C168.563 19.044 169.307 18.756 170.555 18.756C172.139 18.756 173.867 19.236 175.307 20.076V16.956C174.323 16.26 172.595 15.732 170.387 15.732C166.931 15.732 164.483 17.388 164.483 19.764C164.483 22.116 166.499 23.244 169.163 23.724L170.363 23.94C171.563 24.156 172.019 24.348 172.019 24.852C172.019 25.5 171.107 25.788 169.763 25.788C168.035 25.788 165.899 25.068 164.747 24.396ZM182.744 11.052H176.096V13.692H178.664V28.5H182.744V11.052ZM198.903 28.284V25.788C198.783 25.86 198.567 25.908 198.351 25.908C197.895 25.908 197.463 25.716 197.463 25.14V20.676C197.463 17.628 195.207 15.732 191.319 15.732C189.279 15.732 187.359 16.26 186.231 16.932V20.148C187.479 19.188 189.087 18.756 190.527 18.756C192.255 18.756 193.479 19.38 193.479 20.7V21.228C192.759 21.036 191.823 20.916 190.911 20.916C187.935 20.916 185.151 22.068 185.151 24.9C185.151 27.156 187.167 28.812 189.783 28.812C191.871 28.812 192.975 28.068 193.647 27.156C194.079 28.26 195.327 28.812 196.719 28.812C197.847 28.812 198.687 28.452 198.903 28.284ZM189.231 24.684C189.231 23.604 190.479 23.292 191.511 23.292C192.207 23.292 192.903 23.388 193.479 23.556V24.948C192.855 25.62 192.111 26.004 191.103 26.004C189.975 26.004 189.231 25.476 189.231 24.684ZM205.177 28.5V19.884C205.705 19.356 206.473 19.116 207.289 19.116C208.777 19.116 209.593 19.86 209.593 21.372V28.5H213.673V20.124C213.673 17.292 211.777 15.732 209.089 15.732C207.313 15.732 205.993 16.572 205.177 17.484V11.052H198.409V13.668H201.097V28.5H205.177ZM229.699 28.284V25.788C229.579 25.86 229.363 25.908 229.147 25.908C228.691 25.908 228.259 25.716 228.259 25.14V20.676C228.259 17.628 226.003 15.732 222.115 15.732C220.075 15.732 218.155 16.26 217.027 16.932V20.148C218.275 19.188 219.883 18.756 221.323 18.756C223.051 18.756 224.275 19.38 224.275 20.7V21.228C223.555 21.036 222.619 20.916 221.707 20.916C218.731 20.916 215.947 22.068 215.947 24.9C215.947 27.156 217.963 28.812 220.579 28.812C222.667 28.812 223.771 28.068 224.443 27.156C224.875 28.26 226.123 28.812 227.515 28.812C228.643 28.812 229.483 28.452 229.699 28.284ZM220.027 24.684C220.027 23.604 221.275 23.292 222.307 23.292C223.003 23.292 223.699 23.388 224.275 23.556V24.948C223.651 25.62 222.907 26.004 221.899 26.004C220.771 26.004 220.027 25.476 220.027 24.684ZM236.282 23.844V19.092H239.402V16.044H236.282V12.852H232.202V16.044H230.186V19.092H232.202V24.3C232.202 27.324 234.098 28.812 237.05 28.812C237.89 28.812 238.946 28.596 239.402 28.332V25.332C239.138 25.476 238.634 25.572 238.082 25.572C236.978 25.572 236.282 25.02 236.282 23.844Z" fill="#282828"/>
<defs>
<filter id="filter0_d_1230_15620" x="0" y="0" width="57.9355" height="44" filterUnits="userSpaceOnUse" color-interpolation-filters="sRGB">
<feFlood flood-opacity="0" result="BackgroundImageFix"/>
<feColorMatrix in="SourceAlpha" type="matrix" values="0 0 0 0 0 0 0 0 0 0 0 0 0 0 0 0 0 0 127 0" result="hardAlpha"/>
<feOffset dx="2" dy="2"/>
<feGaussianBlur stdDeviation="2"/>
<feComposite in2="hardAlpha" operator="out"/>
<feColorMatrix type="matrix" values="0 0 0 0 0 0 0 0 0 0 0 0 0 0 0 0 0 0 0.08 0"/>
<feBlend mode="normal" in2="BackgroundImageFix" result="effect1_dropShadow_1230_15620"/>
<feBlend mode="normal" in="SourceGraphic" in2="effect1_dropShadow_1230_15620" result="shape"/>
</filter>
</defs>
</svg>
