<svg width="271" height="40" viewBox="0 0 271 40" fill="none" xmlns="http://www.w3.org/2000/svg">
<path d="M19.3548 26.4516C19.3548 21.8195 23.1099 18.0645 27.7419 18.0645H31.6129C36.245 18.0645 40 21.8195 40 26.4516V38.7097C40 39.4223 39.4223 40 38.7097 40H20.6452C19.9325 40 19.3548 39.4223 19.3548 38.7097V26.4516Z" fill="#2B4CFF"/>
<path d="M36.129 9.67742C36.129 13.5969 32.9517 16.7742 29.0323 16.7742C25.1128 16.7742 21.9355 13.5969 21.9355 9.67742C21.9355 5.75798 25.1128 2.58065 29.0323 2.58065C32.9517 2.58065 36.129 5.75798 36.129 9.67742Z" fill="#2B4CFF"/>
<path d="M0 25.1613C0 20.5292 3.75503 16.7742 8.3871 16.7742H13.5484C18.1805 16.7742 21.9355 20.5292 21.9355 25.1613V38.7097C21.9355 39.4223 21.3578 40 20.6452 40H1.29032C0.577697 40 0 39.4223 0 38.7097V25.1613Z" fill="#2B4CFF"/>
<path d="M18.7097 7.74194C18.7097 12.0177 15.2435 15.4839 10.9677 15.4839C6.69199 15.4839 3.22581 12.0177 3.22581 7.74194C3.22581 3.46618 6.69199 0 10.9677 0C15.2435 0 18.7097 3.46618 18.7097 7.74194Z" fill="#2B4CFF"/>
<path d="M43.871 31.9123C42.1505 30.919 42.1505 28.4358 43.871 27.4425L51.6129 22.9727C53.3333 21.9794 55.4839 23.221 55.4839 25.2076V34.1472C55.4839 36.1338 53.3333 37.3754 51.6129 36.3821L43.871 31.9123Z" fill="#2B4CFF"/>
<path d="M67.8474 30H72.8874L74.3154 26.164H81.7074L83.1074 30H88.2874L80.6434 10.288H70.8714V13.368H74.2874L67.8474 30ZM75.5754 22.356L78.0114 15.552L80.4194 22.356H75.5754ZM96.804 35.908C101.256 35.908 104.84 33.556 104.84 29.048V15.468H100.304V17.484C99.66 16.392 98.148 15.104 95.824 15.104C92.128 15.104 89.244 17.82 89.244 22.412C89.244 27.004 92.128 29.692 95.824 29.692C97.924 29.692 99.38 28.628 100.108 27.62V28.964C100.108 31.54 97.98 32.352 95.964 32.352C94.004 32.352 92.24 31.792 90.644 30.7V34.48C92.128 35.348 94.088 35.908 96.804 35.908ZM94.032 22.412C94.032 20.172 95.236 18.772 97.14 18.772C98.26 18.772 99.24 19.136 100.108 19.92V24.932C99.24 25.716 98.26 26.08 97.14 26.08C95.236 26.08 94.032 24.652 94.032 22.412ZM109.487 30H114.247V20.62C114.947 19.948 116.095 19.444 117.831 19.444C118.531 19.444 119.231 19.556 119.651 19.668V15.524C119.399 15.412 118.895 15.328 118.419 15.328C116.095 15.328 114.639 16.532 114.023 18.016V15.468H106.547V18.548H109.487V30ZM128.964 15.104C124.344 15.104 120.816 18.128 120.816 22.72C120.816 27.34 124.344 30.364 128.964 30.364C133.5 30.364 137.056 27.34 137.056 22.72C137.056 18.128 133.5 15.104 128.964 15.104ZM125.604 22.72C125.604 20.508 127.004 18.912 128.964 18.912C130.896 18.912 132.296 20.508 132.296 22.72C132.296 24.96 130.896 26.556 128.964 26.556C127.004 26.556 125.604 24.96 125.604 22.72ZM141.435 30H146.391V17.232L152.159 25.632L157.955 17.092V30H162.911V10.288H157.647L152.299 18.436L146.839 10.288H138.103V13.48H141.435V30ZM181.832 29.748V26.836C181.692 26.92 181.44 26.976 181.188 26.976C180.656 26.976 180.152 26.752 180.152 26.08V20.872C180.152 17.316 177.52 15.104 172.984 15.104C170.604 15.104 168.364 15.72 167.048 16.504V20.256C168.504 19.136 170.38 18.632 172.06 18.632C174.076 18.632 175.504 19.36 175.504 20.9V21.516C174.664 21.292 173.572 21.152 172.508 21.152C169.036 21.152 165.788 22.496 165.788 25.8C165.788 28.432 168.14 30.364 171.192 30.364C173.628 30.364 174.916 29.496 175.7 28.432C176.204 29.72 177.66 30.364 179.284 30.364C180.6 30.364 181.58 29.944 181.832 29.748ZM170.548 25.548C170.548 24.288 172.004 23.924 173.208 23.924C174.02 23.924 174.832 24.036 175.504 24.232V25.856C174.776 26.64 173.908 27.088 172.732 27.088C171.416 27.088 170.548 26.472 170.548 25.548ZM183.596 25.212V28.908C184.744 29.72 187.348 30.364 190.092 30.364C193.9 30.364 196.84 28.6 196.84 25.576C196.84 22.636 194.264 21.544 191.548 21.012L190.12 20.732C188.692 20.452 188.048 20.228 188.048 19.64C188.048 18.968 188.916 18.632 190.372 18.632C192.22 18.632 194.236 19.192 195.916 20.172V16.532C194.768 15.72 192.752 15.104 190.176 15.104C186.144 15.104 183.288 17.036 183.288 19.808C183.288 22.552 185.64 23.868 188.748 24.428L190.148 24.68C191.548 24.932 192.08 25.156 192.08 25.744C192.08 26.5 191.016 26.836 189.448 26.836C187.432 26.836 184.94 25.996 183.596 25.212ZM204.343 9.644H196.587V12.724H199.583V30H204.343V9.644ZM222.945 29.748V26.836C222.805 26.92 222.553 26.976 222.301 26.976C221.769 26.976 221.265 26.752 221.265 26.08V20.872C221.265 17.316 218.633 15.104 214.097 15.104C211.717 15.104 209.477 15.72 208.161 16.504V20.256C209.617 19.136 211.493 18.632 213.173 18.632C215.189 18.632 216.617 19.36 216.617 20.9V21.516C215.777 21.292 214.685 21.152 213.621 21.152C210.149 21.152 206.901 22.496 206.901 25.8C206.901 28.432 209.253 30.364 212.305 30.364C214.741 30.364 216.029 29.496 216.813 28.432C217.317 29.72 218.773 30.364 220.397 30.364C221.713 30.364 222.693 29.944 222.945 29.748ZM211.661 25.548C211.661 24.288 213.117 23.924 214.321 23.924C215.133 23.924 215.945 24.036 216.617 24.232V25.856C215.889 26.64 215.021 27.088 213.845 27.088C212.529 27.088 211.661 26.472 211.661 25.548ZM230.015 30V19.948C230.631 19.332 231.527 19.052 232.479 19.052C234.215 19.052 235.167 19.92 235.167 21.684V30H239.927V20.228C239.927 16.924 237.715 15.104 234.579 15.104C232.507 15.104 230.967 16.084 230.015 17.148V9.644H222.119V12.696H225.255V30H230.015ZM258.375 29.748V26.836C258.235 26.92 257.983 26.976 257.731 26.976C257.199 26.976 256.695 26.752 256.695 26.08V20.872C256.695 17.316 254.063 15.104 249.527 15.104C247.147 15.104 244.907 15.72 243.591 16.504V20.256C245.047 19.136 246.923 18.632 248.603 18.632C250.619 18.632 252.047 19.36 252.047 20.9V21.516C251.207 21.292 250.115 21.152 249.051 21.152C245.579 21.152 242.331 22.496 242.331 25.8C242.331 28.432 244.683 30.364 247.735 30.364C250.171 30.364 251.459 29.496 252.243 28.432C252.747 29.72 254.203 30.364 255.827 30.364C257.143 30.364 258.123 29.944 258.375 29.748ZM247.091 25.548C247.091 24.288 248.547 23.924 249.751 23.924C250.563 23.924 251.375 24.036 252.047 24.232V25.856C251.319 26.64 250.451 27.088 249.275 27.088C247.959 27.088 247.091 26.472 247.091 25.548ZM265.804 24.568V19.024H269.444V15.468H265.804V11.744H261.044V15.468H258.692V19.024H261.044V25.1C261.044 28.628 263.256 30.364 266.7 30.364C267.68 30.364 268.912 30.112 269.444 29.804V26.304C269.136 26.472 268.548 26.584 267.904 26.584C266.616 26.584 265.804 25.94 265.804 24.568Z" fill="black"/>
</svg>
