<svg width="170" height="60" viewBox="0 0 170 60" fill="none" xmlns="http://www.w3.org/2000/svg">
<rect x="0.5" y="0.5" width="169" height="59" rx="11.5" fill="white"/>
<path d="M110.809 27.9012V30.6417H109.107V32.439H110.809V38.5457C110.809 40.631 111.744 41.4651 114.096 41.4651C114.509 41.4651 114.902 41.4154 115.247 41.3558V39.5784C114.951 39.6082 114.765 39.6281 114.44 39.6281C113.387 39.6281 112.925 39.1316 112.925 37.9996V32.439H115.247V30.6417H112.925V27.9012H110.809Z" fill="#377BE1"/>
<path d="M121.237 41.614C124.365 41.614 126.284 39.499 126.284 35.9938C126.284 32.5085 124.355 30.3836 121.237 30.3836C118.108 30.3836 116.18 32.5085 116.18 35.9938C116.18 39.499 118.098 41.614 121.237 41.614ZM121.237 39.7174C119.397 39.7174 118.364 38.3571 118.364 35.9938C118.364 33.6504 119.397 32.2801 121.237 32.2801C123.067 32.2801 124.11 33.6504 124.11 35.9938C124.11 38.3471 123.067 39.7174 121.237 39.7174Z" fill="#377BE1"/>
<path d="M127.925 41.4055H130.041V35.0207C130.041 33.5015 131.172 32.4787 132.776 32.4787C133.15 32.4787 133.779 32.5482 133.956 32.6078V30.5027C133.73 30.4431 133.327 30.4134 133.012 30.4134C131.615 30.4134 130.424 31.1879 130.119 32.2503H129.962V30.5921H127.925V41.4055Z" fill="#377BE1"/>
<path d="M139.208 32.2007C140.773 32.2007 141.796 33.3029 141.845 35.0009H136.434C136.552 33.3128 137.644 32.2007 139.208 32.2007ZM141.835 38.4862C141.442 39.3302 140.566 39.7969 139.287 39.7969C137.595 39.7969 136.503 38.5954 136.434 36.6988V36.5797H144V35.8349C144 32.439 142.199 30.3836 139.218 30.3836C136.198 30.3836 134.279 32.578 134.279 36.0335C134.279 39.4891 136.159 41.614 139.228 41.614C141.678 41.614 143.39 40.4224 143.872 38.4862H141.835Z" fill="#377BE1"/>
<path d="M96.9378 37.4123C97.101 40.0675 99.2934 41.7657 102.557 41.7657C106.044 41.7657 108.226 39.9852 108.226 37.1447C108.226 34.9114 106.982 33.6763 103.964 32.9662L102.342 32.5648C100.425 32.112 99.6503 31.5048 99.6503 30.4447C99.6503 29.1068 100.854 28.232 102.659 28.232C104.372 28.232 105.555 29.0862 105.769 30.455H107.992C107.859 27.9541 105.677 26.1942 102.689 26.1942C99.4769 26.1942 97.3355 27.9541 97.3355 30.5991C97.3355 32.781 98.549 34.0777 101.21 34.7055L103.107 35.1687C105.055 35.6318 105.911 36.311 105.911 37.4431C105.911 38.7605 104.565 39.7176 102.73 39.7176C100.762 39.7176 99.3954 38.8222 99.2016 37.4123H96.9378Z" fill="#377BE1"/>
<path d="M75.0257 30.4134C73.5696 30.4134 72.3103 31.1481 71.661 32.3794H71.5035V30.5921H69.467V45H71.5823V39.7671H71.7495C72.3103 40.909 73.5204 41.5842 75.0454 41.5842C77.751 41.5842 79.4727 39.4295 79.4727 35.9938C79.4727 32.5582 77.751 30.4134 75.0257 30.4134ZM74.4256 39.6678C72.6546 39.6678 71.5429 38.2578 71.5429 36.0037C71.5429 33.7398 72.6546 32.3298 74.4354 32.3298C76.226 32.3298 77.2984 33.71 77.2984 35.9938C77.2984 38.2876 76.226 39.6678 74.4256 39.6678Z" fill="#377BE1"/>
<path d="M86.8744 30.4134C85.4183 30.4134 84.159 31.1481 83.5097 32.3794H83.3522V30.5921H81.3157V45H83.4309V39.7671H83.5982C84.159 40.909 85.3691 41.5842 86.8941 41.5842C89.5997 41.5842 91.3214 39.4295 91.3214 35.9938C91.3214 32.5582 89.5997 30.4134 86.8744 30.4134ZM86.2743 39.6678C84.5033 39.6678 83.3916 38.2578 83.3916 36.0037C83.3916 33.7398 84.5033 32.3298 86.2841 32.3298C88.0747 32.3298 89.1471 33.71 89.1471 35.9938C89.1471 38.2876 88.0747 39.6678 86.2743 39.6678Z" fill="#377BE1"/>
<path d="M65.6718 41.4055H68.0988L62.786 26.5544H60.3284L55.0156 41.4055H57.361L58.7172 37.4637H64.3258L65.6718 41.4055ZM61.4399 29.2509H61.6133L63.7445 35.5289H59.2985L61.4399 29.2509Z" fill="#377BE1"/>
<path d="M56.6 16.59C56.96 16.23 57.9 15.85 58.95 15.85C60.41 15.85 61.42 16.61 61.42 17.78C61.42 18.68 60.81 19.16 60.22 19.31C60.83 19.41 61.65 19.95 61.65 21.02C61.65 22.22 60.57 23.11 58.99 23.11C57.93 23.11 56.9 22.73 56.54 22.37V21.42C57.06 21.91 58.04 22.28 58.94 22.28C60 22.28 60.74 21.78 60.74 20.99C60.74 20.15 59.93 19.79 59.04 19.79H57.95V18.98H59C59.91 18.98 60.51 18.48 60.51 17.81C60.51 17.07 59.85 16.68 58.9 16.68C58.01 16.68 57.12 17.05 56.6 17.54V16.59ZM67.283 22.98C67.173 23.04 67.013 23.11 66.763 23.11C66.303 23.11 65.903 22.86 65.813 22.44C65.523 22.83 65.083 23.11 64.333 23.11C63.353 23.11 62.553 22.53 62.553 21.56C62.553 20.56 63.463 19.99 64.593 19.99C65.143 19.99 65.523 20.08 65.793 20.18V19.71C65.793 19 65.303 18.64 64.563 18.64C63.913 18.64 63.243 18.91 62.863 19.26V18.41C63.163 18.15 63.813 17.85 64.633 17.85C65.883 17.85 66.643 18.56 66.643 19.66V22.01C66.643 22.26 66.793 22.38 67.023 22.38C67.123 22.38 67.213 22.36 67.283 22.32V22.98ZM63.423 21.56C63.423 22.05 63.813 22.36 64.463 22.36C65.113 22.36 65.513 22.12 65.793 21.77V20.87C65.493 20.77 65.113 20.69 64.633 20.69C63.983 20.69 63.423 20.99 63.423 21.56ZM68.2634 23V17.96H71.6834V18.73H69.1234V23H68.2634ZM72.7459 24.91V17.96H73.5759V18.66C73.8359 18.25 74.3159 17.85 75.1459 17.85C76.3159 17.85 77.3259 18.8 77.3259 20.48C77.3259 22.16 76.3159 23.11 75.1459 23.11C74.3559 23.11 73.8759 22.74 73.6059 22.36V24.91H72.7459ZM73.6059 21.66C73.9359 22.07 74.4359 22.33 75.0059 22.33C75.8959 22.33 76.4559 21.59 76.4559 20.48C76.4559 19.38 75.8959 18.63 75.0059 18.63C74.4359 18.63 73.9359 18.89 73.6059 19.3V21.66ZM81.7488 17.96H82.6388L80.7688 22.76C80.2288 24.15 79.5688 25.08 78.4888 25.08C78.2188 25.08 77.9988 25.01 77.8988 24.96V24.17C78.0088 24.24 78.1588 24.29 78.3787 24.29C79.0188 24.29 79.4088 23.8 79.7988 22.96L77.8688 17.96H78.7988L80.2688 21.92L81.7488 17.96ZM83.3671 18.38C83.6771 18.1 84.4271 17.85 85.1471 17.85C86.3271 17.85 87.0571 18.42 87.0571 19.25C87.0571 19.87 86.6571 20.23 86.1971 20.36C86.6971 20.43 87.2571 20.84 87.2571 21.55C87.2571 22.56 86.3071 23.11 85.1471 23.11C84.2871 23.11 83.5971 22.82 83.2871 22.52V21.65C83.6671 22.02 84.4371 22.34 85.1171 22.34C85.8771 22.34 86.3971 22.09 86.3971 21.54C86.3971 21.05 85.9771 20.8 85.2571 20.8H84.4371V20.06H85.1771C85.7971 20.06 86.1971 19.8 86.1971 19.35C86.1971 18.88 85.7671 18.62 85.0771 18.62C84.4171 18.62 83.6971 18.93 83.3671 19.24V18.38ZM92.709 17.96V23H91.859V19.26L89.289 23H88.449V17.96H89.299V21.69L91.869 17.96H92.709ZM93.7712 18.73V17.96H98.1212V18.73H96.3712V23H95.5112V18.73H93.7712ZM98.6668 20.45C98.6668 18.9 99.6268 17.85 100.987 17.85C102.307 17.85 103.157 18.84 103.157 20.18V20.73H99.5668C99.5668 21.53 100.247 22.32 101.397 22.32C102.147 22.32 102.717 22.04 103.097 21.71V22.58C102.787 22.84 102.167 23.11 101.347 23.11C99.7668 23.11 98.6668 22.06 98.6668 20.45ZM99.5668 20.01H102.307C102.267 19.25 101.777 18.62 100.977 18.62C100.167 18.62 99.6468 19.21 99.5668 20.01ZM106.613 23V17.96H108.853C109.903 17.96 110.433 18.53 110.433 19.25C110.433 19.82 110.113 20.18 109.693 20.31C110.173 20.43 110.643 20.84 110.643 21.56C110.643 22.37 110.033 23 108.953 23H106.613ZM107.463 22.25H108.883C109.423 22.25 109.783 21.99 109.783 21.51C109.783 21.03 109.423 20.77 108.883 20.77H107.463V22.25ZM107.463 20.05H108.773C109.263 20.05 109.583 19.8 109.583 19.37C109.583 18.94 109.263 18.69 108.773 18.69H107.463V20.05Z" fill="#377BE1"/>
<path d="M43.5385 29.2169C43.5642 27.2061 44.6342 25.3034 46.3316 24.2501C45.2608 22.7066 43.4672 21.728 41.6011 21.669C39.6108 21.4582 37.6812 22.871 36.667 22.871C35.6332 22.871 34.0716 21.69 32.39 21.7249C30.1982 21.7964 28.1549 23.0541 27.0885 24.9881C24.7963 28.9935 26.5061 34.8802 28.7019 38.118C29.8005 39.7034 31.0844 41.4744 32.7645 41.4116C34.4085 41.3427 35.0225 40.3535 37.007 40.3535C38.973 40.3535 39.5491 41.4116 41.2632 41.3716C43.0273 41.3427 44.1388 39.7792 45.1988 38.1787C45.9882 37.049 46.5956 35.8005 46.9985 34.4794C44.9254 33.5944 43.5409 31.4887 43.5385 29.2169Z" fill="#377BE1"/>
<path d="M40.3008 19.5398C41.2627 18.3744 41.7365 16.8765 41.6218 15.3642C40.1523 15.5199 38.7949 16.2288 37.82 17.3494C36.8667 18.4444 36.3706 19.9159 36.4644 21.3704C37.9345 21.3857 39.3796 20.6961 40.3008 19.5398Z" fill="#377BE1"/>
<rect x="0.5" y="0.5" width="169" height="59" rx="11.5" stroke="#CFD3D8"/>
</svg>
