<svg width="18" height="18" viewBox="0 0 18 18" fill="none" xmlns="http://www.w3.org/2000/svg">
<path d="M0.999999 8L0.646446 8.35355L0.292892 8L0.646446 7.64645L0.999999 8ZM17.5 16C17.5 16.2761 17.2761 16.5 17 16.5C16.7239 16.5 16.5 16.2761 16.5 16L17.5 16ZM5.64645 13.3536L0.646446 8.35355L1.35355 7.64645L6.35355 12.6464L5.64645 13.3536ZM0.646446 7.64645L5.64645 2.64645L6.35355 3.35355L1.35355 8.35355L0.646446 7.64645ZM0.999999 7.5L11 7.5L11 8.5L0.999999 8.5L0.999999 7.5ZM17.5 14L17.5 16L16.5 16L16.5 14L17.5 14ZM11 7.5C14.5898 7.5 17.5 10.4101 17.5 14L16.5 14C16.5 10.9624 14.0376 8.5 11 8.5L11 7.5Z" fill="#242533"/>
</svg>
