<svg width="24" height="25" viewBox="0 0 24 25" fill="none" xmlns="http://www.w3.org/2000/svg">
<path fill-rule="evenodd" clip-rule="evenodd" d="M14 4.79004H7.5C6.10218 4.79004 5.40326 4.79004 4.85195 5.0184C4.11687 5.32288 3.53284 5.9069 3.22836 6.64199C3 7.1933 3 7.89221 3 9.29004V10.04C3 10.4543 3.33579 10.79 3.75 10.79H4C5.10457 10.79 6 11.6855 6 12.79C6 13.8946 5.10457 14.79 4 14.79H3.75C3.33579 14.79 3 15.1258 3 15.54V16.29C3 17.6879 3 18.3868 3.22836 18.9381C3.53284 19.6732 4.11687 20.2572 4.85195 20.5617C5.40326 20.79 6.10218 20.79 7.5 20.79H14V19.79C14 19.2378 14.4477 18.79 15 18.79V16.79C14.4477 16.79 14 16.3423 14 15.79V14.79C14 14.2378 14.4477 13.79 15 13.79V11.79C14.4477 11.79 14 11.3423 14 10.79V9.79004C14 9.23775 14.4477 8.79004 15 8.79004V6.79004C14.4477 6.79004 14 6.34232 14 5.79004V4.79004Z" fill="#22A33F"/>
<path fill-rule="evenodd" clip-rule="evenodd" d="M15 6.79004V8.79004C15.5523 8.79004 16 9.23775 16 9.79004V10.79C16 11.3423 15.5523 11.79 15 11.79V13.79C15.5523 13.79 16 14.2378 16 14.79V15.79C16 16.3423 15.5523 16.79 15 16.79V18.79C15.5523 18.79 16 19.2378 16 19.79V20.79H16.5C17.8978 20.79 18.5967 20.79 19.1481 20.5617C19.8831 20.2572 20.4672 19.6732 20.7716 18.9381C21 18.3868 21 17.6879 21 16.29V15.54C21 15.1258 20.6642 14.79 20.25 14.79H20C18.8954 14.79 18 13.8946 18 12.79C18 11.6855 18.8954 10.79 20 10.79H20.25C20.6642 10.79 21 10.4543 21 10.04V9.29004C21 7.89221 21 7.1933 20.7716 6.64199C20.4672 5.9069 19.8831 5.32288 19.1481 5.0184C18.5967 4.79004 17.8978 4.79004 16.5 4.79004H16V5.79004C16 6.34232 15.5523 6.79004 15 6.79004Z" fill="#7E869E" fill-opacity="0.25"/>
</svg>
