<svg width="18" height="18" viewBox="0 0 18 18" fill="none" xmlns="http://www.w3.org/2000/svg">
<path d="M7.99648 1.55511C4.27817 2.05527 1.5 5.23586 1.5 8.99762C1.5 13.1539 4.84507 16.5 9 16.5C13.1549 16.5 16.5 13.1539 16.5 8.99762C16.5 5.20768 13.7113 2.03766 9.94014 1.54807C9.42606 1.48114 8.51761 1.48467 7.99648 1.55511ZM12.9401 5.76067C13.4472 6.01427 13.6514 6.64123 13.3908 7.14844C13.2606 7.40556 8.48592 12.1676 8.26056 12.2698C8.14789 12.3226 8.02817 12.3438 7.83803 12.3438C7.3662 12.3438 7.35915 12.3367 5.91549 10.8891C4.73592 9.70559 4.63732 9.59992 4.5669 9.40972C4.47887 9.16316 4.47183 8.92717 4.55282 8.67709C4.63732 8.41292 4.92958 8.11705 5.19366 8.029C5.44014 7.94799 5.78521 7.96912 6.00704 8.08183C6.10915 8.13114 6.44366 8.43758 6.94014 8.93069C7.65141 9.63514 7.72887 9.70207 7.83803 9.70207C7.9507 9.70207 8.08803 9.57174 9.91549 7.75074C11.4014 6.26435 11.9085 5.77828 12.0282 5.72545C12.1408 5.67262 12.2606 5.65148 12.4542 5.65148C12.6831 5.65148 12.7535 5.66557 12.9401 5.76067Z" fill="url(#paint0_linear_374_14316)"/>
<defs>
<linearGradient id="paint0_linear_374_14316" x1="1.5" y1="9" x2="16.5" y2="9" gradientUnits="userSpaceOnUse">
<stop stop-color="#396AFC"/>
<stop offset="1" stop-color="#2948FF"/>
</linearGradient>
</defs>
</svg>
