<svg width="26" height="24" viewBox="0 0 26 24" fill="none" xmlns="http://www.w3.org/2000/svg">
<path d="M1.52317 3.92944L0.810364 3.56625H0.810364L1.52317 3.92944ZM2.22912 22.4795L1.66343 21.9138H1.66343L2.22912 22.4795ZM22.3792 18.3854L22.016 17.6726H22.016L22.3792 18.3854ZM24.4768 16.2877L23.764 15.9246V15.9246L24.4768 16.2877ZM24.4768 3.92944L23.764 4.29263V4.29263L24.4768 3.92944ZM22.3792 1.83176L22.016 2.54457L22.016 2.54457L22.3792 1.83176ZM3.62085 1.83176L3.25765 1.11896V1.11896L3.62085 1.83176ZM5.79999 18.9086L5.23431 18.343L5.79999 18.9086ZM1.8 8.98859C1.8 7.63127 1.80062 6.66139 1.86274 5.90111C1.92409 5.15017 2.04143 4.67445 2.23597 4.29263L0.810364 3.56625C0.481739 4.21121 0.337491 4.92093 0.268053 5.77082C0.199378 6.61136 0.2 7.65767 0.2 8.98859H1.8ZM1.8 10.9086V8.98859H0.2V10.9086H1.8ZM0.2 10.9086V18.9086H1.8V10.9086H0.2ZM0.2 18.9086V18.9086H1.8V18.9086H0.2ZM0.2 18.9086V21.9704H1.8V18.9086H0.2ZM0.2 21.9704C0.2 23.3246 1.83726 24.0028 2.7948 23.0452L1.66343 21.9138C1.66807 21.9092 1.68499 21.8975 1.70916 21.8933C1.72896 21.8898 1.74273 21.8932 1.75061 21.8965C1.7585 21.8998 1.77063 21.9071 1.78221 21.9235C1.79634 21.9436 1.8 21.9638 1.8 21.9704H0.2ZM2.7948 23.0452L6.36568 19.4743L5.23431 18.343L1.66343 21.9138L2.7948 23.0452ZM17.32 18.1086H5.80003V19.7086H17.32V18.1086ZM22.016 17.6726C21.6341 17.8672 21.1584 17.9845 20.4075 18.0459C19.6472 18.108 18.6773 18.1086 17.32 18.1086V19.7086C18.6509 19.7086 19.6972 19.7092 20.5378 19.6405C21.3877 19.5711 22.0974 19.4269 22.7423 19.0982L22.016 17.6726ZM23.764 15.9246C23.3805 16.6772 22.7686 17.2891 22.016 17.6726L22.7423 19.0982C23.7961 18.5613 24.6527 17.7046 25.1896 16.6509L23.764 15.9246ZM24.2 11.2286C24.2 12.5859 24.1994 13.5558 24.1373 14.3161C24.0759 15.067 23.9586 15.5427 23.764 15.9246L25.1896 16.6509C25.5183 16.006 25.6625 15.2963 25.7319 14.4464C25.8006 13.6058 25.8 12.5595 25.8 11.2286H24.2ZM24.2 8.98859V11.2286H25.8V8.98859H24.2ZM23.764 4.29263C23.9586 4.67445 24.0759 5.15017 24.1373 5.90111C24.1994 6.66139 24.2 7.63127 24.2 8.98859H25.8C25.8 7.65767 25.8006 6.61136 25.7319 5.77082C25.6625 4.92093 25.5183 4.21121 25.1896 3.56625L23.764 4.29263ZM22.016 2.54457C22.7686 2.92806 23.3805 3.53998 23.764 4.29263L25.1896 3.56625C24.6527 2.51254 23.7961 1.65585 22.7423 1.11896L22.016 2.54457ZM17.32 2.10859C18.6773 2.10859 19.6472 2.10922 20.4075 2.17133C21.1584 2.23269 21.6341 2.35002 22.016 2.54457L22.7423 1.11896C22.0974 0.790332 21.3877 0.646085 20.5378 0.576647C19.6972 0.507972 18.6509 0.508594 17.32 0.508594V2.10859ZM8.68 2.10859H17.32V0.508594H8.68V2.10859ZM3.98404 2.54457C4.36585 2.35002 4.84158 2.23269 5.59251 2.17133C6.35279 2.10922 7.32267 2.10859 8.68 2.10859V0.508594C7.34908 0.508594 6.30277 0.507972 5.46222 0.576647C4.61234 0.646085 3.90262 0.790332 3.25765 1.11896L3.98404 2.54457ZM2.23597 4.29263C2.61947 3.53998 3.23139 2.92806 3.98404 2.54457L3.25765 1.11896C2.20395 1.65585 1.34725 2.51254 0.810364 3.56625L2.23597 4.29263ZM6.6 18.9086C6.6 19.3691 6.22296 19.7086 5.80003 19.7086V18.1086C5.37707 18.1086 5 18.4481 5 18.9086H6.6ZM6.36568 19.4743C6.51389 19.3261 6.6 19.1234 6.6 18.9086H5C5 18.6939 5.0861 18.4912 5.23431 18.343L6.36568 19.4743Z" fill="#707C8B"/>
<path d="M7.40015 7.70898L18.6001 7.70898" stroke="#707C8B" stroke-width="1.6" stroke-linecap="round" stroke-linejoin="round"/>
<path d="M7.40015 12.5088H15.4001" stroke="#707C8B" stroke-width="1.6" stroke-linecap="round" stroke-linejoin="round"/>
</svg>
