<svg width="170" height="60" viewBox="0 0 170 60" fill="none" xmlns="http://www.w3.org/2000/svg">
<rect x="0.5" y="0.5" width="169" height="59" rx="11.5" fill="white"/>
<path d="M85.7635 32.4112C83.185 32.4112 81.0834 34.3834 81.0834 37.0999C81.0834 39.7998 83.185 41.7886 85.7635 41.7886C88.343 41.7886 90.4446 39.7998 90.4446 37.0999C90.4435 34.3834 88.3419 32.4112 85.7635 32.4112ZM85.7635 39.9431C84.3504 39.9431 83.1324 38.7712 83.1324 37.101C83.1324 35.4131 84.3514 34.2589 85.7635 34.2589C87.1766 34.2589 88.3946 35.4131 88.3946 37.101C88.3946 38.7701 87.1766 39.9431 85.7635 39.9431ZM75.5526 32.4112C72.9741 32.4112 70.8725 34.3834 70.8725 37.0999C70.8725 39.7998 72.9741 41.7886 75.5526 41.7886C78.1322 41.7886 80.2338 39.7998 80.2338 37.0999C80.2338 34.3834 78.1322 32.4112 75.5526 32.4112ZM75.5526 39.9431C74.1395 39.9431 72.9215 38.7712 72.9215 37.101C72.9215 35.4131 74.1406 34.2589 75.5526 34.2589C76.9657 34.2589 78.1837 35.4131 78.1837 37.101C78.1848 38.7701 76.9657 39.9431 75.5526 39.9431ZM63.4079 33.851V35.8398H68.1417C68.0003 36.9588 67.6297 37.7757 67.064 38.3435C66.3756 39.0358 65.2979 39.7998 63.4079 39.7998C60.4939 39.7998 58.2159 37.4372 58.2159 34.5069C58.2159 31.5766 60.4939 29.214 63.4079 29.214C64.98 29.214 66.1278 29.8358 66.9752 30.6351L68.3708 29.2317C67.1868 28.0951 65.6158 27.2252 63.4079 27.2252C59.4163 27.2252 56.0605 30.4929 56.0605 34.5069C56.0605 38.5209 59.4163 41.7886 63.4079 41.7886C65.5621 41.7886 67.1879 41.0775 68.4585 39.7458C69.7653 38.4316 70.172 36.5839 70.172 35.0923C70.172 34.6315 70.1369 34.2048 70.0657 33.8499H63.4079V33.851ZM113.079 35.3955C112.691 34.3482 111.507 32.4112 109.087 32.4112C106.685 32.4112 104.689 34.3118 104.689 37.0999C104.689 39.7281 106.668 41.7886 109.316 41.7886C111.453 41.7886 112.689 40.4745 113.203 39.7105L111.613 38.6444C111.083 39.4261 110.359 39.9409 109.316 39.9409C108.275 39.9409 107.533 39.4613 107.056 38.5198L113.29 35.9269L113.079 35.3955ZM106.72 36.9588C106.668 35.1463 108.116 34.2236 109.158 34.2236C109.971 34.2236 110.659 34.6326 110.889 35.218L106.72 36.9588ZM101.652 41.5053H103.7V27.7235H101.652V41.5053ZM98.2952 33.4596H98.225C97.7657 32.9084 96.8821 32.4112 95.7704 32.4112C93.4386 32.4112 91.3019 34.4716 91.3019 37.1186C91.3019 39.7469 93.4386 41.7897 95.7704 41.7897C96.8832 41.7897 97.7657 41.2925 98.225 40.7247H98.2952V41.3994C98.2952 43.1931 97.3414 44.1523 95.8055 44.1523C94.5513 44.1523 93.7741 43.2472 93.4561 42.4832L91.6725 43.2295C92.1845 44.472 93.5438 46 95.8055 46C98.2075 46 100.239 44.5789 100.239 41.115V32.6967H98.2963V33.4596H98.2952ZM95.9469 39.9431C94.5338 39.9431 93.3509 38.7525 93.3509 37.1186C93.3509 35.4661 94.5338 34.2589 95.9469 34.2589C97.3414 34.2589 98.4366 35.4661 98.4366 37.1186C98.4366 38.7525 97.3414 39.9431 95.9469 39.9431ZM122.676 27.7235H117.774V41.5053H119.819V36.2841H122.675C124.942 36.2841 127.171 34.6337 127.171 32.0044C127.171 29.375 124.943 27.7235 122.676 27.7235ZM122.728 34.3658H119.819V29.6418H122.728C124.258 29.6418 125.126 30.9151 125.126 32.0044C125.126 33.0715 124.258 34.3658 122.728 34.3658ZM135.371 32.3869C133.89 32.3869 132.356 33.0429 131.721 34.497L133.537 35.2588C133.925 34.497 134.648 34.2478 135.406 34.2478C136.464 34.2478 137.539 34.8862 137.557 36.0206V36.1628C137.186 35.95 136.392 35.6314 135.423 35.6314C133.466 35.6314 131.473 36.7129 131.473 38.7337C131.473 40.5781 133.078 41.7655 134.876 41.7655C136.251 41.7655 137.01 41.1448 137.485 40.4172H137.556V41.481H139.531V36.197C139.532 33.7517 137.715 32.3869 135.371 32.3869ZM135.123 39.9398C134.454 39.9398 133.519 39.6025 133.519 38.769C133.519 37.7051 134.683 37.2972 135.689 37.2972C136.586 37.2972 137.011 37.4924 137.557 37.7581C137.398 39.0358 136.305 39.9398 135.123 39.9398ZM146.725 32.6879L144.38 38.6632H144.31L141.876 32.6879H139.673L143.322 41.0389L141.241 45.6847H143.375L149 32.6879H146.725ZM128.301 41.5053H130.345V27.7235L128.301 27.7235V41.5053Z" fill="#377BE1"/>
<path d="M56.6 16.59C56.96 16.23 57.9 15.85 58.95 15.85C60.41 15.85 61.42 16.61 61.42 17.78C61.42 18.68 60.81 19.16 60.22 19.31C60.83 19.41 61.65 19.95 61.65 21.02C61.65 22.22 60.57 23.11 58.99 23.11C57.93 23.11 56.9 22.73 56.54 22.37V21.42C57.06 21.91 58.04 22.28 58.94 22.28C60 22.28 60.74 21.78 60.74 20.99C60.74 20.15 59.93 19.79 59.04 19.79H57.95V18.98H59C59.91 18.98 60.51 18.48 60.51 17.81C60.51 17.07 59.85 16.68 58.9 16.68C58.01 16.68 57.12 17.05 56.6 17.54V16.59ZM67.283 22.98C67.173 23.04 67.013 23.11 66.763 23.11C66.303 23.11 65.903 22.86 65.813 22.44C65.523 22.83 65.083 23.11 64.333 23.11C63.353 23.11 62.553 22.53 62.553 21.56C62.553 20.56 63.463 19.99 64.593 19.99C65.143 19.99 65.523 20.08 65.793 20.18V19.71C65.793 19 65.303 18.64 64.563 18.64C63.913 18.64 63.243 18.91 62.863 19.26V18.41C63.163 18.15 63.813 17.85 64.633 17.85C65.883 17.85 66.643 18.56 66.643 19.66V22.01C66.643 22.26 66.793 22.38 67.023 22.38C67.123 22.38 67.213 22.36 67.283 22.32V22.98ZM63.423 21.56C63.423 22.05 63.813 22.36 64.463 22.36C65.113 22.36 65.513 22.12 65.793 21.77V20.87C65.493 20.77 65.113 20.69 64.633 20.69C63.983 20.69 63.423 20.99 63.423 21.56ZM68.2634 23V17.96H71.6834V18.73H69.1234V23H68.2634ZM72.7459 24.91V17.96H73.5759V18.66C73.8359 18.25 74.3159 17.85 75.1459 17.85C76.3159 17.85 77.3259 18.8 77.3259 20.48C77.3259 22.16 76.3159 23.11 75.1459 23.11C74.3559 23.11 73.8759 22.74 73.6059 22.36V24.91H72.7459ZM73.6059 21.66C73.9359 22.07 74.4359 22.33 75.0059 22.33C75.8959 22.33 76.4559 21.59 76.4559 20.48C76.4559 19.38 75.8959 18.63 75.0059 18.63C74.4359 18.63 73.9359 18.89 73.6059 19.3V21.66ZM81.7488 17.96H82.6388L80.7688 22.76C80.2288 24.15 79.5688 25.08 78.4888 25.08C78.2188 25.08 77.9988 25.01 77.8988 24.96V24.17C78.0088 24.24 78.1588 24.29 78.3787 24.29C79.0188 24.29 79.4088 23.8 79.7988 22.96L77.8688 17.96H78.7988L80.2688 21.92L81.7488 17.96ZM83.3671 18.38C83.6771 18.1 84.4271 17.85 85.1471 17.85C86.3271 17.85 87.0571 18.42 87.0571 19.25C87.0571 19.87 86.6571 20.23 86.1971 20.36C86.6971 20.43 87.2571 20.84 87.2571 21.55C87.2571 22.56 86.3071 23.11 85.1471 23.11C84.2871 23.11 83.5971 22.82 83.2871 22.52V21.65C83.6671 22.02 84.4371 22.34 85.1171 22.34C85.8771 22.34 86.3971 22.09 86.3971 21.54C86.3971 21.05 85.9771 20.8 85.2571 20.8H84.4371V20.06H85.1771C85.7971 20.06 86.1971 19.8 86.1971 19.35C86.1971 18.88 85.7671 18.62 85.0771 18.62C84.4171 18.62 83.6971 18.93 83.3671 19.24V18.38ZM92.709 17.96V23H91.859V19.26L89.289 23H88.449V17.96H89.299V21.69L91.869 17.96H92.709ZM93.7712 18.73V17.96H98.1212V18.73H96.3712V23H95.5112V18.73H93.7712ZM98.6668 20.45C98.6668 18.9 99.6268 17.85 100.987 17.85C102.307 17.85 103.157 18.84 103.157 20.18V20.73H99.5668C99.5668 21.53 100.247 22.32 101.397 22.32C102.147 22.32 102.717 22.04 103.097 21.71V22.58C102.787 22.84 102.167 23.11 101.347 23.11C99.7668 23.11 98.6668 22.06 98.6668 20.45ZM99.5668 20.01H102.307C102.267 19.25 101.777 18.62 100.977 18.62C100.167 18.62 99.6468 19.21 99.5668 20.01ZM106.613 23V17.96H108.853C109.903 17.96 110.433 18.53 110.433 19.25C110.433 19.82 110.113 20.18 109.693 20.31C110.173 20.43 110.643 20.84 110.643 21.56C110.643 22.37 110.033 23 108.953 23H106.613ZM107.463 22.25H108.883C109.423 22.25 109.783 21.99 109.783 21.51C109.783 21.03 109.423 20.77 108.883 20.77H107.463V22.25ZM107.463 20.05H108.773C109.263 20.05 109.583 19.8 109.583 19.37C109.583 18.94 109.263 18.69 108.773 18.69H107.463V20.05Z" fill="#377BE1"/>
<path fill-rule="evenodd" clip-rule="evenodd" d="M22.2231 17.1657C22.0797 17.4691 22 17.847 22 18.2906L22 42.6725C22 43.1171 22.0798 43.4951 22.2234 43.7984L35.4643 30.4813L22.2231 17.1657ZM22.9152 44.521C23.4101 44.7572 24.0671 44.6996 24.7857 44.2898L40.3507 35.3952L36.1694 31.1904L22.9152 44.521ZM41.2507 34.8821L46.1644 32.0746C47.696 31.1982 47.696 29.7661 46.1644 28.8907L41.2487 26.0818L36.8745 30.4812L41.2507 34.8821ZM40.3494 25.5679L24.7857 16.6745C24.067 16.2638 23.4099 16.2066 22.9149 16.4432L36.1693 29.7721L40.3494 25.5679Z" fill="#377BE1"/>
<rect x="0.5" y="0.5" width="169" height="59" rx="11.5" stroke="#CFD3D8"/>
</svg>
