<svg width="223" height="41" viewBox="0 0 223 41" fill="none" xmlns="http://www.w3.org/2000/svg">
<g clip-path="url(#clip0_1_108)">
<path d="M71.5 39.116C77.464 39.116 82.028 35.056 82.028 28.896C82.028 22.736 77.464 18.676 71.5 18.676C65.536 18.676 61 22.736 61 28.896C61 35.056 65.536 39.116 71.5 39.116ZM66.068 28.896C66.068 25.396 68.308 22.82 71.5 22.82C74.72 22.82 76.932 25.396 76.932 28.896C76.932 32.396 74.72 34.972 71.5 34.972C68.308 34.972 66.068 32.396 66.068 28.896Z" fill="black"/>
<path d="M84.9982 24.668C84.9982 26.432 86.2862 27.58 87.8822 27.58C89.4502 27.58 90.6542 26.488 90.6542 25.06C90.6542 23.688 89.5902 22.988 88.6662 22.736C89.0302 21.336 90.1222 19.684 91.0742 18.704H87.7422C86.6222 19.768 84.9982 22.092 84.9982 24.668Z" fill="black"/>
<path d="M93.9154 38.752H106.879V35H99.9074L106.879 27.384V24.22H93.9154V27.944H100.943L93.9154 35.588V38.752Z" fill="black"/>
<path d="M114.409 38.752V24.22H109.649V38.752H114.409ZM109.341 19.936C109.341 21.336 110.517 22.372 112.001 22.372C113.513 22.372 114.689 21.336 114.689 19.936C114.689 18.564 113.513 17.5 112.001 17.5C110.517 17.5 109.341 18.564 109.341 19.936Z" fill="black"/>
<path d="M123.863 38.752V28.644C124.451 28.084 125.291 27.804 126.215 27.804C127.643 27.804 128.539 28.672 128.539 30.156V38.752H133.299V28.672C133.887 28.084 134.755 27.804 135.651 27.804C137.107 27.804 138.003 28.672 138.003 30.156V38.752H142.763V28.924C142.763 25.676 140.523 23.856 137.387 23.856C134.867 23.856 133.355 25.144 132.599 26.152C131.843 24.836 130.387 23.856 128.259 23.856C126.075 23.856 124.535 25.004 123.639 26.18V24.22H116.107V27.3H119.103V38.752H123.863Z" fill="black"/>
<path d="M151.804 24.22H144.048V27.3H147.044V38.752H151.804V24.22ZM146.624 19.936C146.624 21.336 147.8 22.372 149.284 22.372C150.796 22.372 151.972 21.336 151.972 19.936C151.972 18.564 150.796 17.5 149.284 17.5C147.8 17.5 146.624 18.564 146.624 19.936Z" fill="black"/>
<path d="M154.576 38.752H167.54V35H160.568L167.54 27.384V24.22H154.576V27.944H161.604L154.576 35.588V38.752Z" fill="black"/>
<path d="M175.069 38.752V28.7C175.685 28.084 176.581 27.804 177.533 27.804C179.269 27.804 180.221 28.672 180.221 30.436V38.752H184.981V28.98C184.981 25.676 182.769 23.856 179.633 23.856C177.365 23.856 175.769 25.004 174.845 26.18V24.22H170.309V38.752H175.069Z" fill="black"/>
<path d="M194.038 24.22H186.282V27.3H189.278V38.752H194.038V24.22ZM188.858 19.936C188.858 21.336 190.034 22.372 191.518 22.372C193.03 22.372 194.206 21.336 194.206 19.936C194.206 18.564 193.03 17.5 191.518 17.5C190.034 17.5 188.858 18.564 188.858 19.936Z" fill="black"/>
<path d="M197.426 38.752H202.186V32.984H204.118L207.59 38.752H212.882L208.094 31.024L212.518 24.22H207.506L204.174 29.344H202.186V18.396H197.426V38.752Z" fill="black"/>
<path d="M220.609 24.22H212.853V27.3H215.849V38.752H220.609V24.22ZM215.429 19.936C215.429 21.336 216.605 22.372 218.089 22.372C219.601 22.372 220.777 21.336 220.777 19.936C220.777 18.564 219.601 17.5 218.089 17.5C216.605 17.5 215.429 18.564 215.429 19.936Z" fill="black"/>
<path d="M61 12.028H63.184L63.884 9.998H67.426L68.126 12.028H70.352L66.782 2.172H64.57L61 12.028ZM64.444 8.22L65.648 4.622L66.866 8.22H64.444Z" fill="black"/>
<path d="M74.4193 14.968C76.4913 14.968 78.0873 13.806 78.0873 11.552V4.79H76.1273V5.812C75.8193 5.252 75.1333 4.622 74.0273 4.622C72.3193 4.622 70.9753 5.966 70.9753 8.276C70.9753 10.558 72.3193 11.902 74.0273 11.902C75.0353 11.902 75.7073 11.37 76.0433 10.852V11.51C76.0433 12.84 75.0773 13.302 74.0833 13.302C73.1453 13.302 72.3333 13.008 71.5913 12.462V14.24C72.2773 14.688 73.1873 14.968 74.4193 14.968ZM73.0333 8.276C73.0333 7.086 73.6353 6.344 74.5733 6.344C75.1333 6.344 75.6373 6.554 76.0433 6.974V9.564C75.6373 9.984 75.1333 10.208 74.5733 10.208C73.6353 10.208 73.0333 9.438 73.0333 8.276Z" fill="black"/>
<path d="M79.8149 12.028H81.8589V7.282C82.1809 6.904 82.7269 6.638 83.5809 6.638C83.8889 6.638 84.1969 6.694 84.3929 6.75V4.818C84.2669 4.762 84.0429 4.72 83.8189 4.72C82.7409 4.72 82.0689 5.308 81.7749 6.036V4.79H79.8149V12.028Z" fill="black"/>
<path d="M88.7797 4.622C86.6517 4.622 85.0697 6.134 85.0697 8.416C85.0697 10.698 86.6517 12.196 88.7797 12.196C90.8797 12.196 92.4757 10.698 92.4757 8.416C92.4757 6.134 90.8797 4.622 88.7797 4.622ZM87.1277 8.416C87.1277 7.226 87.7997 6.386 88.7797 6.386C89.7597 6.386 90.4317 7.226 90.4317 8.416C90.4317 9.592 89.7597 10.432 88.7797 10.432C87.7997 10.432 87.1277 9.592 87.1277 8.416Z" fill="black"/>
<path d="M93.6466 10.334V12.028H101.109V10.124H96.3066L101.109 3.852V2.172H93.6466V4.076H98.4626L93.6466 10.334Z" fill="black"/>
<path d="M109.577 11.916V10.544C109.493 10.6 109.367 10.628 109.255 10.628C108.989 10.628 108.765 10.488 108.765 10.166V7.45C108.765 5.7 107.575 4.622 105.531 4.622C104.411 4.622 103.403 4.944 102.829 5.336V7.1C103.487 6.554 104.355 6.288 105.153 6.288C106.105 6.288 106.777 6.666 106.777 7.478V7.828C106.399 7.716 105.881 7.632 105.335 7.632C103.725 7.632 102.269 8.332 102.269 9.942C102.269 11.258 103.347 12.196 104.761 12.196C105.881 12.196 106.483 11.776 106.847 11.244C107.071 11.874 107.715 12.196 108.457 12.196C109.031 12.196 109.437 12.014 109.577 11.916ZM104.313 9.83C104.313 9.172 104.999 8.948 105.615 8.948C106.049 8.948 106.441 9.018 106.777 9.13V9.998C106.427 10.432 105.993 10.67 105.391 10.67C104.733 10.67 104.313 10.334 104.313 9.83Z" fill="black"/>
<path d="M112.744 12.028V6.974C113.024 6.638 113.444 6.456 113.92 6.456C114.634 6.456 115.082 6.904 115.082 7.702V12.028H117.126V6.946C117.42 6.624 117.868 6.456 118.316 6.456C119.044 6.456 119.478 6.904 119.478 7.716V12.028H121.508V7.17C121.508 5.518 120.472 4.622 119.044 4.622C117.854 4.622 117.14 5.266 116.804 5.77C116.44 5.126 115.768 4.622 114.788 4.622C113.766 4.622 113.066 5.196 112.66 5.756V4.79H110.7V12.028H112.744Z" fill="black"/>
<path d="M125.226 4.79H123.182V12.028H125.226V4.79ZM123.028 2.648C123.028 3.306 123.532 3.81 124.19 3.81C124.848 3.81 125.366 3.306 125.366 2.648C125.366 2.004 124.848 1.5 124.19 1.5C123.532 1.5 123.028 2.004 123.028 2.648Z" fill="black"/>
<path d="M129 12.028V6.988C129.294 6.638 129.77 6.456 130.274 6.456C131.1 6.456 131.576 6.904 131.576 7.856V12.028H133.62V7.212C133.62 5.518 132.556 4.622 131.128 4.622C130.05 4.622 129.322 5.196 128.916 5.77V4.79H126.956V12.028H129Z" fill="black"/>
<path d="M24.5136 39.6296C24.5136 39.9225 24.5136 40.2099 24.4975 40.5C10.9611 40.4918 0 29.4686 0 15.8613C0 15.5711 0 15.281 0.0161628 14.9935C13.5391 14.999 24.5136 26.0277 24.5136 39.6296Z" fill="#377BE1"/>
<path d="M49.0001 15.8614C49.0001 29.4633 38.039 40.4975 24.5134 40.4975C24.5134 40.2073 24.5134 39.9171 24.5134 39.627C24.5134 26.0252 35.4718 14.991 48.9974 14.991C48.9947 15.2811 49.0001 15.5713 49.0001 15.8614Z" fill="#377BE1"/>
<path d="M24.5133 18.6643C26.2764 18.6427 27.9937 18.0917 29.4493 17.0807C30.905 16.0697 32.0338 14.6437 32.6938 12.9823C33.3538 11.321 33.5155 9.49831 33.1585 7.74376C32.8016 5.9892 31.9419 4.38112 30.6877 3.12184C29.4336 1.86256 27.8409 1.00835 26.1101 0.666681C24.3792 0.325014 22.5877 0.511158 20.9607 1.20169C19.3338 1.89222 17.9441 3.05629 16.9667 4.54744C15.9893 6.03858 15.4677 7.79017 15.4675 9.58183C15.4739 10.782 15.713 11.969 16.1711 13.0752C16.6293 14.1814 17.2976 15.1849 18.1377 16.0285C18.9778 16.872 19.9733 17.539 21.0673 17.9912C22.1613 18.4435 23.3323 18.6722 24.5133 18.6643Z" fill="#00CD69"/>
</g>
<defs>
<clipPath id="clip0_1_108">
<rect width="223" height="40" fill="white" transform="translate(0 0.5)"/>
</clipPath>
</defs>
</svg>
