<svg width="16" height="16" viewBox="0 0 16 16" fill="none" xmlns="http://www.w3.org/2000/svg">
<path fill-rule="evenodd" clip-rule="evenodd" d="M3.37032 2.03921C2.90099 2.07756 2.60366 2.15089 2.36502 2.27248C1.89462 2.51217 1.51217 2.89462 1.27248 3.36502C1.15089 3.60366 1.07756 3.90099 1.03921 4.37032C1.00039 4.84549 1 5.45167 1 6.3V14.2929L2.85355 12.4393C3.13486 12.158 3.51639 12 3.91421 12H10.7C11.5483 12 12.1545 11.9996 12.6297 11.9608C13.099 11.9224 13.3963 11.8491 13.635 11.7275C14.1054 11.4878 14.4878 11.1054 14.7275 10.635C14.8491 10.3963 14.9224 10.099 14.9608 9.62968C14.9996 9.1545 15 8.54833 15 7.7V6.3C15 5.45167 14.9996 4.84549 14.9608 4.37032C14.9224 3.90099 14.8491 3.60366 14.7275 3.36502C14.4878 2.89462 14.1054 2.51217 13.635 2.27248C13.3963 2.15089 13.099 2.07756 12.6297 2.03921C12.1545 2.00039 11.5483 2 10.7 2H5.3C4.45167 2 3.84549 2.00039 3.37032 2.03921ZM5.27779 1H10.7222C11.5435 0.999997 12.1905 0.999994 12.7111 1.04253C13.2423 1.08593 13.6859 1.17609 14.089 1.38148C14.7475 1.71703 15.283 2.25247 15.6185 2.91103C15.8239 3.31413 15.9141 3.75771 15.9575 4.28889C16 4.80954 16 5.45651 16 6.27778V7.72222C16 8.54349 16 9.19046 15.9575 9.71111C15.9141 10.2423 15.8239 10.6859 15.6185 11.089C15.283 11.7475 14.7475 12.283 14.089 12.6185C13.6859 12.8239 13.2423 12.9141 12.7111 12.9575C12.1905 13 11.5435 13 10.7222 13H3.91421C3.78161 13 3.65443 13.0527 3.56066 13.1464L1.62175 15.0854C1.02329 15.6838 1.78202e-07 15.26 1.78202e-07 14.4136L5.89924e-08 6.27779C-3.27887e-06 5.45652 -6.02007e-06 4.80955 0.0425333 4.28889C0.0859321 3.75771 0.176087 3.31414 0.381477 2.91103C0.717034 2.25247 1.25247 1.71703 1.91103 1.38148C2.31414 1.17609 2.75771 1.08593 3.28889 1.04253C3.80955 0.999994 4.45652 0.999997 5.27779 1Z" fill="#707C8B"/>
<path fill-rule="evenodd" clip-rule="evenodd" d="M4 5.5C4 5.22386 4.22386 5 4.5 5L11.5 5C11.7761 5 12 5.22386 12 5.5C12 5.77614 11.7761 6 11.5 6L4.5 6C4.22386 6 4 5.77614 4 5.5Z" fill="#707C8B"/>
<path fill-rule="evenodd" clip-rule="evenodd" d="M4 8.5C4 8.22386 4.22386 8 4.5 8L9.5 8C9.77614 8 10 8.22386 10 8.5C10 8.77614 9.77614 9 9.5 9L4.5 9C4.22386 9 4 8.77614 4 8.5Z" fill="#707C8B"/>
</svg>
