<svg width="16" height="16" viewBox="0 0 16 16" fill="none" xmlns="http://www.w3.org/2000/svg">
<path fill-rule="evenodd" clip-rule="evenodd" d="M8.73561 2.78528L9.95379 5.21892C10.0732 5.45783 10.3036 5.62349 10.5709 5.66183L13.296 6.05409C13.9692 6.15129 14.2372 6.9673 13.7499 7.43486L11.7793 9.32836C11.5857 9.51457 11.4975 9.78223 11.5433 10.0451L12.0084 12.7183C12.1229 13.3796 11.4191 13.8841 10.8173 13.5713L8.38161 12.3083C8.14284 12.1844 7.85686 12.1844 7.61739 12.3083L5.18174 13.5713C4.57994 13.8841 3.87611 13.3796 3.99133 12.7183L4.45569 10.0451C4.50151 9.78223 4.41335 9.51457 4.21969 9.32836L2.2491 7.43486C1.76183 6.9673 2.02976 6.15129 2.70305 6.05409L5.42815 5.66183C5.69538 5.62349 5.92653 5.45783 6.04591 5.21892L7.26339 2.78528C7.56464 2.18355 8.43437 2.18355 8.73561 2.78528Z" stroke="#E9BF2D" stroke-width="0.999917" stroke-linecap="round" stroke-linejoin="round"/>
</svg>
