<svg width="36" height="36" viewBox="0 0 36 36" fill="none" xmlns="http://www.w3.org/2000/svg">
<path fill-rule="evenodd" clip-rule="evenodd" d="M19.6561 6.26551L22.3973 11.7416C22.6659 12.2792 23.1845 12.652 23.7858 12.7383L29.9178 13.6209C31.4328 13.8397 32.0357 15.6758 30.9392 16.7279L26.505 20.9887C26.0693 21.4076 25.8709 22.0099 25.974 22.6015L27.0205 28.6167C27.2782 30.1048 25.6944 31.24 24.3402 30.5361L18.8596 27.694C18.3223 27.4152 17.6788 27.4152 17.1399 27.694L11.6593 30.5361C10.3051 31.24 8.72135 30.1048 8.98062 28.6167L10.0255 22.6015C10.1286 22.0099 9.93025 21.4076 9.49448 20.9887L5.06028 16.7279C3.96383 15.6758 4.56672 13.8397 6.08175 13.6209L12.2137 12.7383C12.8151 12.652 13.3352 12.2792 13.6038 11.7416L16.3434 6.26551C17.0212 4.9115 18.9783 4.9115 19.6561 6.26551Z" fill="#E9BF2D" stroke="#E9BF2D" stroke-width="0.999917" stroke-linecap="round" stroke-linejoin="round"/>
</svg>
