<svg width="32" height="32" viewBox="0 0 32 32" fill="none" xmlns="http://www.w3.org/2000/svg">
<path fill-rule="evenodd" clip-rule="evenodd" d="M17.4723 5.56967L19.9089 10.4373C20.1477 10.9152 20.6086 11.2466 21.1431 11.3232L26.5938 12.1078C27.9405 12.3022 28.4764 13.9344 27.5018 14.8696L23.5602 18.6569C23.1729 19.0293 22.9966 19.5647 23.0882 20.0905L24.0184 25.4374C24.2475 26.7601 22.8397 27.7692 21.636 27.1435L16.7643 24.6172C16.2867 24.3694 15.7147 24.3694 15.2357 24.6172L10.364 27.1435C9.16031 27.7692 7.75253 26.7601 7.98299 25.4374L8.9118 20.0905C9.00343 19.5647 8.82711 19.0293 8.43976 18.6569L4.49824 14.8696C3.52362 13.9344 4.05952 12.3022 5.40622 12.1078L10.8569 11.3232C11.3914 11.2466 11.8537 10.9152 12.0925 10.4373L14.5277 5.56967C15.1302 4.3661 16.8698 4.3661 17.4723 5.56967Z" stroke="#E9BF2D" stroke-width="0.999917" stroke-linecap="round" stroke-linejoin="round"/>
</svg>
