<svg width="159" height="27" viewBox="0 0 159 27" fill="none" xmlns="http://www.w3.org/2000/svg">
<path d="M33.6654 17.904V21H47.6094V17.496H38.9694L47.6094 7.176V4.104H33.6654V7.608H42.3054L33.6654 17.904ZM63.4162 20.784V18.288C63.2962 18.36 63.0802 18.408 62.8642 18.408C62.4082 18.408 61.9762 18.216 61.9762 17.64V13.176C61.9762 10.128 59.7202 8.232 55.8322 8.232C53.7922 8.232 51.8722 8.76 50.7442 9.432V12.648C51.9922 11.688 53.6002 11.256 55.0402 11.256C56.7682 11.256 57.9922 11.88 57.9922 13.2V13.728C57.2722 13.536 56.3362 13.416 55.4242 13.416C52.4482 13.416 49.6642 14.568 49.6642 17.4C49.6642 19.656 51.6802 21.312 54.2962 21.312C56.3842 21.312 57.4882 20.568 58.1602 19.656C58.5922 20.76 59.8402 21.312 61.2322 21.312C62.3602 21.312 63.2002 20.952 63.4162 20.784ZM53.7442 17.184C53.7442 16.104 54.9922 15.792 56.0242 15.792C56.7202 15.792 57.4162 15.888 57.9922 16.056V17.448C57.3682 18.12 56.6242 18.504 55.6162 18.504C54.4882 18.504 53.7442 17.976 53.7442 17.184ZM70.3053 21V12.336C70.8093 11.856 71.5293 11.616 72.3213 11.616C73.5453 11.616 74.3133 12.36 74.3133 13.632V21H78.3933V12.36C78.8973 11.856 79.6413 11.616 80.4093 11.616C81.6573 11.616 82.4253 12.36 82.4253 13.632V21H86.5053V12.576C86.5053 9.792 84.5853 8.232 81.8973 8.232C79.7373 8.232 78.4413 9.336 77.7933 10.2C77.1453 9.072 75.8973 8.232 74.0733 8.232C72.2013 8.232 70.8813 9.216 70.1133 10.224V8.544H63.6573V11.184H66.2253V21H70.3053ZM94.4694 8.544H87.8214V11.184H90.3894V21H94.4694V8.544ZM90.0294 4.872C90.0294 6.072 91.0374 6.96 92.3094 6.96C93.6054 6.96 94.6134 6.072 94.6134 4.872C94.6134 3.696 93.6054 2.784 92.3094 2.784C91.0374 2.784 90.0294 3.696 90.0294 4.872ZM101.667 21V12.384C102.195 11.856 102.963 11.616 103.779 11.616C105.267 11.616 106.083 12.36 106.083 13.872V21H110.163V12.624C110.163 9.792 108.267 8.232 105.579 8.232C103.635 8.232 102.267 9.216 101.475 10.224V8.544H97.5873V21H101.667ZM122.485 4.104H111.853V6.84H114.709V21H118.981V15.624H122.533C126.541 15.624 129.109 13.152 129.109 9.864C129.109 6.552 126.685 4.104 122.485 4.104ZM118.981 12.24V7.488H121.933C123.589 7.488 124.765 8.376 124.765 9.864C124.765 11.352 123.589 12.24 121.933 12.24H118.981ZM144.346 20.784V18.288C144.226 18.36 144.01 18.408 143.794 18.408C143.338 18.408 142.906 18.216 142.906 17.64V13.176C142.906 10.128 140.65 8.232 136.762 8.232C134.722 8.232 132.802 8.76 131.674 9.432V12.648C132.922 11.688 134.53 11.256 135.97 11.256C137.698 11.256 138.922 11.88 138.922 13.2V13.728C138.202 13.536 137.266 13.416 136.354 13.416C133.378 13.416 130.594 14.568 130.594 17.4C130.594 19.656 132.61 21.312 135.226 21.312C137.314 21.312 138.418 20.568 139.09 19.656C139.522 20.76 140.77 21.312 142.162 21.312C143.29 21.312 144.13 20.952 144.346 20.784ZM134.674 17.184C134.674 16.104 135.922 15.792 136.954 15.792C137.65 15.792 138.346 15.888 138.922 16.056V17.448C138.298 18.12 137.554 18.504 136.546 18.504C135.418 18.504 134.674 17.976 134.674 17.184ZM154.128 8.544L151.344 16.584L148.8 8.544H144.456L149.112 20.952C148.536 22.152 147.648 22.8 146.328 22.8C145.704 22.8 145.224 22.656 144.984 22.512V25.656C145.296 25.824 146.088 26.064 147.048 26.064C150.384 26.064 152.52 23.808 154.032 19.8L158.28 8.544H154.128Z" fill="#1E1E1E"/>
<path fill-rule="evenodd" clip-rule="evenodd" d="M6.59997 5.39993L0 12L12 24L24 12L17.3999 5.39993L12 0L6.59997 5.39993ZM6.59997 5.39993V8.13742H13.2919L6.59997 16.1811V18.5999H17.3999V15.8624H10.708L17.3999 7.79992V5.39993H6.59997Z" fill="#00B327"/>
</svg>
