<svg width="42" height="48" viewBox="0 0 42 48" fill="none" xmlns="http://www.w3.org/2000/svg">
<path fill-rule="evenodd" clip-rule="evenodd" d="M14.6655 14.1114V16.2229H15.3693H16.0731V19.3133V22.4038L13.6563 25.4248C11.4464 28.1872 11.2174 28.4899 10.9802 28.9619C10.8269 29.267 10.6702 29.6699 10.5969 29.9472C10.4871 30.3625 10.4731 30.5027 10.4742 31.1672C10.4753 31.784 10.4933 31.9834 10.5754 32.2853C10.8279 33.2139 11.2558 33.9679 11.8848 34.5929C12.5245 35.2284 13.2682 35.6459 14.2065 35.8963L14.5951 36H20.9998H27.4045L27.8134 35.8918C29.6512 35.4055 30.9201 34.1364 31.4259 32.2786C31.5061 31.9841 31.5244 31.7799 31.5254 31.1672C31.5265 30.4994 31.5128 30.3646 31.4013 29.9472C31.3298 29.6797 31.1653 29.2562 31.0185 28.9619C30.7817 28.4871 30.5675 28.2038 28.3438 25.4248L25.9265 22.4038V19.3133V16.2229H26.6303H27.3341V14.1114V12H20.9998H14.6655V14.1114ZM25.9265 14.1114V14.8152H20.9998H16.0731V14.1114V13.4076H20.9998H25.9265V14.1114ZM24.5188 19.5596V22.8964L27.0554 26.0684C29.7278 29.4103 29.8556 29.5909 30.0341 30.2757C30.4702 31.9486 29.5975 33.6765 27.9675 34.3675C27.3712 34.6203 27.497 34.6158 20.9998 34.6158C14.4445 34.6158 14.6393 34.6232 13.9877 34.349C12.6415 33.7824 11.7734 32.4052 11.8649 30.9811C11.8798 30.748 11.9251 30.4305 11.9655 30.2757C12.1439 29.5909 12.2718 29.4103 14.9442 26.0684L17.4807 22.8964V19.5596V16.2229H20.9998H24.5188V19.5596ZM20.4549 21.5244C18.9385 23.2234 17.9952 24.6772 17.6386 25.8651C17.5302 26.2261 17.5114 26.376 17.5086 26.8974C17.5036 27.8433 17.6986 28.416 18.1904 28.8997C18.5977 29.3001 19.208 29.559 19.9047 29.6269C20.3215 29.6675 20.3242 29.6707 20.2556 30.0433C20.0917 30.9328 19.4079 31.6099 18.5198 31.7622L18.1845 31.8197V32.514V33.2082H18.3507C18.5837 33.2082 19.1841 33.0788 19.4696 32.9671C19.8581 32.8151 20.3448 32.4872 20.6676 32.16C21.2737 31.5457 21.5981 30.8584 21.6845 30.0051C21.7205 29.6499 21.6923 29.6713 22.1963 29.6166C22.8668 29.5437 23.5686 29.2096 23.9253 28.7935C24.4885 28.1363 24.6671 26.9316 24.3578 25.876C24.0022 24.6623 23.0493 23.1981 21.4729 21.4428C21.2354 21.1783 21.0221 20.9619 20.999 20.9619C20.9758 20.9619 20.731 21.215 20.4549 21.5244ZM21.3818 23.4839C22.1065 24.4135 22.7274 25.4594 22.9765 26.1701C23.0607 26.4106 23.0838 26.5796 23.0855 26.969C23.0875 27.4092 23.0747 27.4883 22.9677 27.6961C22.8702 27.8856 22.7998 27.9534 22.5924 28.0572C22.4475 28.1297 22.2 28.2025 22.0203 28.2253L21.7036 28.2655V27.2178V26.1701H20.9998H20.296V27.218V28.266L20.0027 28.2272C19.2182 28.1235 18.9478 27.8433 18.9002 27.0845C18.8576 26.4071 19.1657 25.6101 19.9069 24.481C20.2538 23.9525 20.9496 23.0264 20.9998 23.0264C21.0137 23.0264 21.1856 23.2323 21.3818 23.4839Z" fill="#282828"/>
</svg>
