<svg width="62" height="62" viewBox="0 0 62 62" fill="none" xmlns="http://www.w3.org/2000/svg">
<path d="M31.4134 18.3241C35.2941 18.3241 37.9119 20.0004 39.4045 21.4012L45.2371 15.7063C41.6549 12.3767 36.9934 10.333 31.4134 10.333C23.3304 10.333 16.3497 14.9715 12.9512 21.7226L19.6334 26.9123C21.3097 21.9293 25.9482 18.3241 31.4134 18.3241Z" fill="#EA4335"/>
<path d="M51.2531 31.4586C51.2531 29.7593 51.1153 28.5193 50.8168 27.2334H31.4131V34.903H42.8027C42.5731 36.809 41.3331 39.6793 38.5775 41.6082L45.099 46.6601C49.0027 43.0549 51.2531 37.7504 51.2531 31.4586Z" fill="#4285F4"/>
<path d="M19.6567 35.0871C19.2204 33.8012 18.9678 32.4234 18.9678 30.9997C18.9678 29.576 19.2204 28.1982 19.6337 26.9123L12.9515 21.7227C11.5508 24.5241 10.7471 27.6701 10.7471 30.9997C10.7471 34.3293 11.5508 37.4753 12.9515 40.2767L19.6567 35.0871Z" fill="#FBBC05"/>
<path d="M31.4139 51.6662C36.9939 51.6662 41.6783 49.8291 45.0998 46.6602L38.5783 41.6084C36.8331 42.8254 34.4909 43.6751 31.4139 43.6751C25.9487 43.6751 21.3102 40.0699 19.6568 35.0869L12.9746 40.2765C16.3731 47.0277 23.3309 51.6662 31.4139 51.6662Z" fill="#34A853"/>
</svg>
