<svg
  width="17"
  height="16"
  viewBox="0 0 17 16"
  fill="none"
  xmlns="http://www.w3.org/2000/svg"
>
  <path
    d="M1.82576 2.95639L2.27126 3.18338L1.82576 2.95639ZM2.26698 14.5502L2.62053 14.9037H2.62053L2.26698 14.5502ZM14.8608 11.9914L14.6338 11.5459L14.8608 11.9914ZM16.1718 10.6803L15.7263 10.4533L16.1718 10.6803ZM16.1718 2.95639L15.7263 3.18338V3.18338L16.1718 2.95639ZM14.8608 1.64534L15.0877 1.19984V1.19984L14.8608 1.64534ZM3.13681 1.64534L3.3638 2.09084L3.13681 1.64534ZM4.20589 12.6113L4.55944 12.9648L4.20589 12.6113ZM1.99878 6.11836C1.99878 5.27003 1.99917 4.66385 2.03799 4.18868C2.07634 3.71935 2.14967 3.42202 2.27126 3.18338L1.38026 2.72939C1.17487 3.13249 1.08471 3.57607 1.04131 4.10725C0.99839 4.63259 0.998779 5.28653 0.998779 6.11836H1.99878ZM1.99878 7.31836V6.11836H0.998779V7.31836H1.99878ZM0.998779 7.31836V12.3184H1.99878V7.31836H0.998779ZM0.998779 12.3184V14.232H1.99878V12.3184H0.998779ZM0.998779 14.232C0.998779 15.0783 2.02206 15.5022 2.62053 14.9037L1.91342 14.1966C1.91632 14.1937 1.9269 14.1864 1.94201 14.1838C1.95438 14.1816 1.96298 14.1837 1.96791 14.1858C1.97284 14.1878 1.98042 14.1924 1.98766 14.2027C1.99649 14.2152 1.99878 14.2279 1.99878 14.232H0.998779ZM2.62053 14.9037L4.55944 12.9648L3.85233 12.2577L1.91342 14.1966L2.62053 14.9037ZM11.6988 11.8184H4.91299V12.8184H11.6988V11.8184ZM14.6338 11.5459C14.3951 11.6675 14.0978 11.7408 13.6285 11.7791C13.1533 11.818 12.5471 11.8184 11.6988 11.8184V12.8184C12.5306 12.8184 13.1845 12.8187 13.7099 12.7758C14.2411 12.7324 14.6846 12.6423 15.0877 12.4369L14.6338 11.5459ZM15.7263 10.4533C15.4866 10.9237 15.1042 11.3062 14.6338 11.5459L15.0877 12.4369C15.7463 12.1013 16.2817 11.5659 16.6173 10.9073L15.7263 10.4533ZM15.9988 7.51836C15.9988 8.36669 15.9984 8.97286 15.9596 9.44804C15.9212 9.91737 15.8479 10.2147 15.7263 10.4533L16.6173 10.9073C16.8227 10.5042 16.9128 10.0606 16.9562 9.52947C16.9992 9.00413 16.9988 8.35019 16.9988 7.51836H15.9988ZM15.9988 6.11836V7.51836H16.9988V6.11836H15.9988ZM15.7263 3.18338C15.8479 3.42202 15.9212 3.71935 15.9596 4.18868C15.9984 4.66385 15.9988 5.27003 15.9988 6.11836H16.9988C16.9988 5.28653 16.9992 4.63259 16.9562 4.10725C16.9128 3.57607 16.8227 3.13249 16.6173 2.72939L15.7263 3.18338ZM14.6338 2.09084C15.1042 2.33053 15.4866 2.71298 15.7263 3.18338L16.6173 2.72939C16.2817 2.07083 15.7463 1.53539 15.0877 1.19984L14.6338 2.09084ZM11.6988 1.81836C12.5471 1.81836 13.1533 1.81875 13.6285 1.85757C14.0978 1.89592 14.3951 1.96925 14.6338 2.09084L15.0877 1.19984C14.6846 0.994446 14.2411 0.904291 13.7099 0.860892C13.1845 0.817971 12.5306 0.818359 11.6988 0.818359V1.81836ZM6.29878 1.81836H11.6988V0.818359H6.29878V1.81836ZM3.3638 2.09084C3.60244 1.96925 3.89977 1.89592 4.3691 1.85757C4.84427 1.81875 5.45045 1.81836 6.29878 1.81836V0.818359C5.46695 0.818359 4.81301 0.817971 4.28767 0.860892C3.75649 0.904291 3.31291 0.994446 2.90981 1.19984L3.3638 2.09084ZM2.27126 3.18338C2.51095 2.71298 2.8934 2.33053 3.3638 2.09084L2.90981 1.19984C2.25125 1.53539 1.71581 2.07083 1.38026 2.72939L2.27126 3.18338ZM4.55944 12.9648C4.65321 12.871 4.78038 12.8184 4.91299 12.8184V11.8184C4.51517 11.8184 4.13364 11.9764 3.85233 12.2577L4.55944 12.9648Z"
    fill="#707C8B"
  />
  <path
    d="M5.49878 5.31836L12.4988 5.31836"
    stroke="#707C8B"
    stroke-linecap="round"
    stroke-linejoin="round"
  />
  <path
    d="M5.49878 8.31836L10.4988 8.31836"
    stroke="#707C8B"
    stroke-linecap="round"
    stroke-linejoin="round"
  />
</svg>
