<svg
  width="24"
  height="24"
  viewBox="0 0 26 26"
  fill="none"
  xmlns="http://www.w3.org/2000/svg"
>
  <path
    fill-rule="evenodd"
    clip-rule="evenodd"
    d="M1.98693 2.19649C3.29957 0.788224 5.16893 0 7.37622 0C7.9285 0 8.37622 0.447715 8.37622 1C8.37622 1.55228 7.9285 2 7.37622 2C5.66437 2 4.34562 2.59924 3.44994 3.56016C2.54699 4.52889 2 5.94602 2 7.70184C2 8.25412 1.55228 8.70184 1 8.70184C0.447715 8.70184 0 8.25412 0 7.70184C0 5.53074 0.681554 3.59695 1.98693 2.19649ZM17.6225 1C17.6225 0.447715 18.0702 0 18.6225 0C20.8349 0 22.7051 0.787794 24.0172 2.19686C25.3217 3.59788 26 5.53185 26 7.70184C26 8.25412 25.5523 8.70184 25 8.70184C24.4477 8.70184 24 8.25412 24 7.70184C24 5.94491 23.4549 4.52796 22.5534 3.55979C21.6594 2.59967 20.3408 2 18.6225 2C18.0702 2 17.6225 1.55228 17.6225 1ZM1 17.2982C1.55228 17.2982 2 17.7459 2 18.2982C2 20.0552 2.54481 21.4722 3.44601 22.4403C4.33967 23.4004 5.65788 24 7.37622 24C7.9285 24 8.37622 24.4477 8.37622 25C8.37622 25.5523 7.9285 26 7.37622 26C5.16374 26 3.29384 25.2122 1.9821 23.803C0.677889 22.402 0 20.468 0 18.2982C0 17.7459 0.447715 17.2982 1 17.2982ZM25 17.2982C25.5523 17.2982 26 17.7459 26 18.2982C26 20.4682 25.3217 22.4022 24.0169 23.8032C22.7047 25.2123 20.8342 26 18.6212 26C18.0689 26 17.6212 25.5523 17.6212 25C17.6212 24.4477 18.0689 24 18.6212 24C20.3403 24 21.6592 23.4003 22.5533 22.4402C23.455 21.472 24 20.0551 24 18.2982C24 17.7459 24.4477 17.2982 25 17.2982Z"
    fill="white"
  />
  <path
    fill-rule="evenodd"
    clip-rule="evenodd"
    d="M18 13C18 15.7614 15.7614 18 13 18C10.2386 18 8 15.7614 8 13C8 10.2386 10.2386 8 13 8C15.7614 8 18 10.2386 18 13ZM13 16C14.6569 16 16 14.6569 16 13C16 11.3431 14.6569 10 13 10C11.3431 10 10 11.3431 10 13C10 14.6569 11.3431 16 13 16Z"
    fill="white"
  />
</svg>
