<svg
  width="24"
  height="24"
  viewBox="0 0 25 24"
  fill="none"
  xmlns="http://www.w3.org/2000/svg"
>
  <path
    fill-rule="evenodd"
    clip-rule="evenodd"
    d="M16.9646 15.5383C17.0455 17.3704 15.5669 18.9196 13.6623 18.9975C13.5221 19.0034 6.68304 18.9896 6.68304 18.9896C4.78769 19.1335 3.12887 17.7715 2.97938 15.9463C2.96811 15.8103 2.97118 8.47219 2.97118 8.47219C2.88722 6.63815 4.36377 5.08499 6.26936 5.00418C6.41169 4.99728 13.2415 5.01009 13.2415 5.01009C15.1461 4.86818 16.81 6.24001 16.9574 8.07405C16.9677 8.2061 16.9646 15.5383 16.9646 15.5383Z"
    stroke="white"
    stroke-width="2"
    stroke-linecap="round"
    stroke-linejoin="round"
  />
  <path
    d="M16.9678 9.97984L20.2608 7.28484C21.0768 6.61684 22.3008 7.19884 22.2998 8.25184L22.2878 15.6008C22.2868 16.6538 21.0618 17.2308 20.2478 16.5628L16.9678 13.8678"
    stroke="white"
    stroke-width="2"
    stroke-linecap="round"
    stroke-linejoin="round"
  />
</svg>
