<svg
  width="24"
  height="24"
  viewBox="0 0 26 24"
  fill="none"
  xmlns="http://www.w3.org/2000/svg"
>
  <path
    fill-rule="evenodd"
    clip-rule="evenodd"
    d="M18.2966 15.5383C18.3775 17.3704 16.8989 18.9196 14.9944 18.9975C14.8541 19.0034 8.01507 18.9896 8.01507 18.9896C6.11972 19.1335 4.46091 17.7715 4.31141 15.9463C4.30014 15.8103 4.30322 8.47219 4.30322 8.47219C4.21925 6.63815 5.6958 5.08499 7.60139 5.00418C7.74372 4.99728 14.5735 5.01009 14.5735 5.01009C16.4781 4.86818 18.142 6.24001 18.2895 8.07405C18.2997 8.2061 18.2966 15.5383 18.2966 15.5383Z"
    stroke="white"
    stroke-width="2"
    stroke-linecap="round"
    stroke-linejoin="round"
  />
  <path
    d="M18.2998 9.97984L21.5928 7.28484C22.4088 6.61684 23.6328 7.19884 23.6318 8.25184L23.6198 15.6008C23.6188 16.6538 22.3938 17.2308 21.5798 16.5628L18.2998 13.8678"
    stroke="white"
    stroke-width="2"
    stroke-linecap="round"
    stroke-linejoin="round"
  />
  <line
    x1="1.41421"
    y1="1"
    x2="22.6274"
    y2="22.2132"
    stroke="white"
    stroke-width="2"
    stroke-linecap="round"
  />
</svg>
