<svg
  width="32"
  height="32"
  viewBox="0 0 28 29"
  fill="none"
  xmlns="http://www.w3.org/2000/svg"
>
  <path
    d="M6.45396 19.38L6.45397 19.38L6.4801 19.3734L6.48012 19.3734L9.10809 18.7164C9.12428 18.7124 9.14043 18.7084 9.15654 18.7044C9.37531 18.65 9.58562 18.5978 9.77707 18.4894C9.96852 18.381 10.1215 18.2275 10.2807 18.0679C10.2924 18.0561 10.3042 18.0444 10.316 18.0325L17.5101 10.8385L17.5101 10.8385L17.5369 10.8117C17.8472 10.5014 18.1215 10.2272 18.3128 9.97638C18.5202 9.70457 18.6858 9.39104 18.6858 9C18.6858 8.60896 18.5202 8.29543 18.3128 8.02361C18.1215 7.77285 17.8472 7.49863 17.5369 7.18835L17.51 7.16152L17.3385 6.98995L17.3117 6.96314C17.0014 6.6528 16.7272 6.37853 16.4764 6.1872C16.2046 5.97981 15.891 5.81421 15.5 5.81421C15.109 5.81421 14.7954 5.97981 14.5236 6.1872C14.2729 6.37853 13.9986 6.65278 13.6884 6.96311L13.6615 6.98995L6.46745 14.184C6.45565 14.1958 6.44386 14.2076 6.43211 14.2193C6.27249 14.3785 6.11904 14.5315 6.01064 14.7229C5.90225 14.9144 5.84999 15.1247 5.79562 15.3435C5.79162 15.3596 5.78761 15.3757 5.78356 15.3919L5.12003 18.046C5.11762 18.0557 5.11518 18.0654 5.11272 18.0752C5.07411 18.2293 5.03044 18.4035 5.01593 18.5518C4.99978 18.7169 5.00127 19.0162 5.24255 19.2574C5.48383 19.4987 5.78307 19.5002 5.94819 19.4841C6.09646 19.4696 6.27072 19.4259 6.42479 19.3873C6.4346 19.3848 6.44433 19.3824 6.45396 19.38Z"
    stroke="#CCD2E3"
    stroke-width="1.2"
  />
  <path d="M13 7.5L17 11.5" stroke="#CCD2E3" stroke-width="1.2" />
</svg>
