<svg
  width="34"
  height="34"
  viewBox="0 0 34 34"
  fill="none"
  xmlns="http://www.w3.org/2000/svg"
>
  <path
    d="M12.0192 6.14011L12.5889 10.7321C12.6685 11.3745 12.4495 12.0179 11.9952 12.4756L10.4501 14.0326C9.84508 14.6422 9.79693 15.6146 10.3387 16.2818L11.7902 18.0694C12.6794 19.1646 13.7255 20.1203 14.894 20.9053L16.9512 22.2873C17.6297 22.7431 18.5361 22.6367 19.0925 22.036L20.5737 20.4369C20.8654 20.1219 21.2968 19.9792 21.717 20.0586L26.6849 20.9972C27.2757 21.1088 27.7038 21.6286 27.7038 22.2342V26.4908C27.7038 27.1632 27.1833 27.7206 26.5161 27.7039C18.913 27.5139 5.6954 22.4335 5.03813 6.30265C5.00983 5.60813 5.57189 5.0376 6.26172 5.0376H10.7798C11.4098 5.0376 11.9411 5.51026 12.0192 6.14011Z"
    fill="white"
  />
</svg>
