<svg
  width="25"
  height="25"
  viewBox="0 0 25 25"
  fill="none"
  xmlns="http://www.w3.org/2000/svg"
>
  <path
    d="M4 9.47808C4 8.45299 4 7.94045 4.20266 7.55032C4.37343 7.22157 4.64149 6.95351 4.97025 6.78273C5.36038 6.58008 5.87292 6.58008 6.898 6.58008H18.102C19.1271 6.58008 19.6396 6.58008 20.0298 6.78273C20.3585 6.95351 20.6266 7.22157 20.7973 7.55032C21 7.94045 21 8.45299 21 9.47808V15.6821C21 16.7072 21 17.2197 20.7973 17.6098C20.6266 17.9386 20.3585 18.2066 20.0298 18.3774C19.6396 18.5801 19.1271 18.5801 18.102 18.5801H6.898C5.87292 18.5801 5.36038 18.5801 4.97025 18.3774C4.64149 18.2066 4.37343 17.9386 4.20266 17.6098C4 17.2197 4 16.7072 4 15.6821V9.47808Z"
    stroke="#282828"
    stroke-width="1.5"
  />
  <path
    d="M4 10.5801L21 10.5801"
    stroke="#282828"
    stroke-width="1.5"
    stroke-linecap="round"
  />
  <circle cx="7" cy="15.5801" r="0.5" fill="#282828" />
</svg>
