<svg width="25" height="25" viewBox="0 0 25 25" fill="none" xmlns="http://www.w3.org/2000/svg">
<path d="M4 9.47796C4 8.45287 4 7.94033 4.20266 7.5502C4.37343 7.22144 4.64149 6.95339 4.97025 6.78261C5.36038 6.57996 5.87292 6.57996 6.898 6.57996H18.102C19.1271 6.57996 19.6396 6.57996 20.0298 6.78261C20.3585 6.95339 20.6266 7.22144 20.7973 7.5502C21 7.94033 21 8.45287 21 9.47796V15.682C21 16.707 21 17.2196 20.7973 17.6097C20.6266 17.9385 20.3585 18.2065 20.0298 18.3773C19.6396 18.58 19.1271 18.58 18.102 18.58H6.898C5.87292 18.58 5.36038 18.58 4.97025 18.3773C4.64149 18.2065 4.37343 17.9385 4.20266 17.6097C4 17.2196 4 16.707 4 15.682V9.47796Z" stroke="black" stroke-width="1.5"/>
<path d="M4 10.58L21 10.58" stroke="black" stroke-width="1.5" stroke-linecap="round"/>
<circle cx="7" cy="15.58" r="0.5" fill="black"/>
</svg>
