<svg width="24" height="25" viewBox="0 0 24 25" fill="none" xmlns="http://www.w3.org/2000/svg">
<path d="M20 12.08C20 8.30872 20 6.4231 18.8284 5.25153C17.6569 4.07996 15.7712 4.07996 12 4.07996V4.07996C8.22876 4.07996 6.34315 4.07996 5.17157 5.25153C4 6.4231 4 8.30872 4 12.08V18.08C4 19.0228 4 19.4942 4.29289 19.7871C4.58579 20.08 5.05719 20.08 6 20.08H12C15.7712 20.08 17.6569 20.08 18.8284 18.9084C20 17.7368 20 15.8512 20 12.08V12.08Z" stroke="#282828" stroke-width="1.5"/>
<path d="M9 10.08L15 10.08" stroke="#282828" stroke-width="1.5" stroke-linecap="round" stroke-linejoin="round"/>
<path d="M9 14.08H12" stroke="#282828" stroke-width="1.5" stroke-linecap="round" stroke-linejoin="round"/>
</svg>
