<svg width="24" height="24" viewBox="0 0 24 24" fill="none" xmlns="http://www.w3.org/2000/svg">
<path fill-rule="evenodd" clip-rule="evenodd" d="M20 12C20 16.4183 16.4183 20 12 20C7.58172 20 4 16.4183 4 12C4 7.58172 7.58172 4 12 4C16.4183 4 20 7.58172 20 12ZM8.97978 15.0202C8.78452 14.825 8.78452 14.5084 8.97978 14.3131L11.2929 12L8.97978 9.68689C8.78452 9.49162 8.78452 9.17504 8.97978 8.97978C9.17504 8.78452 9.49162 8.78452 9.68689 8.97978L12 11.2929L14.3131 8.97978C14.5084 8.78452 14.825 8.78452 15.0202 8.97978C15.2155 9.17504 15.2155 9.49162 15.0202 9.68689L12.7071 12L15.0202 14.3131C15.2155 14.5084 15.2155 14.825 15.0202 15.0202C14.825 15.2155 14.5084 15.2155 14.3131 15.0202L12 12.7071L9.68689 15.0202C9.49162 15.2155 9.17504 15.2155 8.97978 15.0202Z" fill="#BB3737"/>
</svg>
