<svg width="38" height="38" viewBox="0 0 38 38" fill="none" xmlns="http://www.w3.org/2000/svg">
<ellipse cx="19" cy="18.7907" rx="18" ry="17.7907" stroke="#00CC69"/>
<path d="M19.0167 14.9685C16.8739 14.9685 15.1663 16.6893 15.1663 18.7742C15.1663 20.8921 16.8739 22.5798 19.0167 22.5798C21.1261 22.5798 22.8672 20.8921 22.8672 18.7742C22.8672 16.6893 21.1261 14.9685 19.0167 14.9685ZM19.0167 21.2561C17.644 21.2561 16.5056 20.1641 16.5056 18.7742C16.5056 17.4174 17.6105 16.3253 19.0167 16.3253C20.3895 16.3253 21.4944 17.4174 21.4944 18.7742C21.4944 20.1641 20.3895 21.2561 19.0167 21.2561ZM23.9051 14.8361C23.9051 14.3397 23.5033 13.9426 23.0011 13.9426C22.4989 13.9426 22.0971 14.3397 22.0971 14.8361C22.0971 15.3325 22.4989 15.7296 23.0011 15.7296C23.5033 15.7296 23.9051 15.3325 23.9051 14.8361ZM26.4498 15.7296C26.3828 14.5383 26.115 13.4793 25.2444 12.6189C24.3739 11.7585 23.3025 11.4938 22.0971 11.4276C20.8583 11.3614 17.1417 11.3614 15.9029 11.4276C14.6975 11.4938 13.6596 11.7585 12.7556 12.6189C11.885 13.4793 11.6172 14.5383 11.5502 15.7296C11.4833 16.9541 11.4833 20.6274 11.5502 21.8518C11.6172 23.0431 11.885 24.069 12.7556 24.9625C13.6596 25.8229 14.6975 26.0877 15.9029 26.1539C17.1417 26.2201 20.8583 26.2201 22.0971 26.1539C23.3025 26.0877 24.3739 25.8229 25.2444 24.9625C26.115 24.069 26.3828 23.0431 26.4498 21.8518C26.5167 20.6274 26.5167 16.9541 26.4498 15.7296ZM24.8426 23.1424C24.6083 23.8043 24.0725 24.3007 23.4364 24.5654C22.4319 24.9625 20.0882 24.8633 19.0167 24.8633C17.9118 24.8633 15.5681 24.9625 14.5971 24.5654C13.9275 24.3007 13.4252 23.8043 13.1574 23.1424C12.7556 22.1827 12.856 19.8662 12.856 18.7742C12.856 17.7152 12.7556 15.3987 13.1574 14.4059C13.4252 13.7772 13.9275 13.2808 14.5971 13.016C15.5681 12.6189 17.9118 12.7182 19.0167 12.7182C20.0882 12.7182 22.4319 12.6189 23.4364 13.016C24.0725 13.2477 24.5748 13.7772 24.8426 14.4059C25.2444 15.3987 25.144 17.7152 25.144 18.7742C25.144 19.8662 25.2444 22.1827 24.8426 23.1424Z" fill="#00CC69"/>
</svg>
