<svg width="24" height="24" viewBox="0 0 24 24" fill="none" xmlns="http://www.w3.org/2000/svg">
<path d="M3 11C3 7.22876 3 5.34315 4.17157 4.17157C5.34315 3 7.22876 3 11 3H13C16.7712 3 18.6569 3 19.8284 4.17157C21 5.34315 21 7.22876 21 11V13C21 16.7712 21 18.6569 19.8284 19.8284C18.6569 21 16.7712 21 13 21H11C7.22876 21 5.34315 21 4.17157 19.8284C3 18.6569 3 16.7712 3 13V11Z" fill="white"/>
<circle cx="12" cy="10" r="4" fill="#2B4CFF"/>
<path fill-rule="evenodd" clip-rule="evenodd" d="M18.9468 20.2532C18.9621 20.3587 18.9053 20.4613 18.8068 20.5021C17.6053 21 15.8358 21 13.0005 21H11.0005C8.16525 21 6.39579 21 5.19426 20.5022C5.09579 20.4614 5.03894 20.3587 5.05422 20.2532C5.48314 17.2919 8.42957 15 12.0005 15C15.5715 15 18.5179 17.2919 18.9468 20.2532Z" fill="#2B4CFF"/>
</svg>
