<svg width="24" height="20" viewBox="0 0 24 20" fill="none" xmlns="http://www.w3.org/2000/svg">
<path d="M5.5 3.98008C5.5 3.14 5.5 2.71996 5.66349 2.39909C5.8073 2.11685 6.03677 1.88738 6.31901 1.74357C6.63988 1.58008 7.05992 1.58008 7.9 1.58008H12.5059C12.8728 1.58008 13.0562 1.58008 13.2288 1.62152C13.3819 1.65827 13.5282 1.71887 13.6624 1.80112C13.8138 1.89388 13.9435 2.02359 14.2029 2.28302L17.7971 5.87714C18.0565 6.13656 18.1862 6.26628 18.279 6.41765C18.3612 6.55186 18.4218 6.69818 18.4586 6.85123C18.5 7.02386 18.5 7.2073 18.5 7.57419V16.1801C18.5 17.0202 18.5 17.4402 18.3365 17.7611C18.1927 18.0433 17.9632 18.2728 17.681 18.4166C17.3601 18.5801 16.9401 18.5801 16.1 18.5801H7.9C7.05992 18.5801 6.63988 18.5801 6.31901 18.4166C6.03677 18.2728 5.8073 18.0433 5.66349 17.7611C5.5 17.4402 5.5 17.0202 5.5 16.1801V3.98008Z" stroke="#282828" stroke-width="1.5"/>
<path d="M5.5 3.98008C5.5 3.14 5.5 2.71996 5.66349 2.39909C5.8073 2.11685 6.03677 1.88738 6.31901 1.74357C6.63988 1.58008 7.05992 1.58008 7.9 1.58008H12.5059C12.8728 1.58008 13.0562 1.58008 13.2288 1.62152C13.3819 1.65827 13.5282 1.71887 13.6624 1.80112C13.8138 1.89388 13.9435 2.02359 14.2029 2.28302L17.7971 5.87714C18.0565 6.13656 18.1862 6.26628 18.279 6.41765C18.3612 6.55186 18.4218 6.69818 18.4586 6.85123C18.5 7.02386 18.5 7.2073 18.5 7.57419V16.1801C18.5 17.0202 18.5 17.4402 18.3365 17.7611C18.1927 18.0433 17.9632 18.2728 17.681 18.4166C17.3601 18.5801 16.9401 18.5801 16.1 18.5801H7.9C7.05992 18.5801 6.63988 18.5801 6.31901 18.4166C6.03677 18.2728 5.8073 18.0433 5.66349 17.7611C5.5 17.4402 5.5 17.0202 5.5 16.1801V3.98008Z" stroke="#282828" stroke-width="1.5"/>
<path d="M8.5 10.5801L15.5 10.5801" stroke="#282828" stroke-width="1.5" stroke-linecap="round"/>
<path d="M8.5 13.5801L12.5 13.5801" stroke="#282828" stroke-width="1.5" stroke-linecap="round"/>
<path d="M13 2.08008V5.68008C13 6.52016 13 6.9402 13.1635 7.26106C13.3073 7.54331 13.5368 7.77278 13.819 7.91659C14.1399 8.08008 14.5599 8.08008 15.4 8.08008H18" stroke="#282828" stroke-width="1.5"/>
</svg>
