<svg width="24" height="25" viewBox="0 0 24 25" fill="none" xmlns="http://www.w3.org/2000/svg">
<path d="M14.1361 3.4414L14.8824 3.36677L14.1361 3.4414ZM13.9838 2.62157L13.3172 2.96536V2.96536L13.9838 2.62157ZM14.4311 4.89788L15.0274 4.44299L15.0274 4.44299L14.4311 4.89788ZM15.3595 5.28243L15.2595 4.53913H15.2595L15.3595 5.28243ZM16.5979 4.46109L17.0728 5.04155L17.0728 5.04155L16.5979 4.46109ZM17.2853 3.98914L17.5135 4.70357L17.2853 3.98914ZM17.9872 4.02415L18.2854 3.33598L18.2854 3.33598L17.9872 4.02415ZM18.6243 4.56216L18.094 5.09248V5.09249L18.6243 4.56216ZM19.5178 5.45562L20.0481 4.92529V4.92529L19.5178 5.45562ZM20.0558 6.09271L20.744 5.79452L20.744 5.79452L20.0558 6.09271ZM20.0908 6.7946L20.8052 7.02283L20.8052 7.02282L20.0908 6.7946ZM19.6188 7.48206L19.0384 7.00713L19.0384 7.00713L19.6188 7.48206ZM18.7975 8.72051L18.0542 8.62053V8.62053L18.7975 8.72051ZM19.182 9.64888L18.7271 10.2452V10.2452L19.182 9.64888ZM20.6385 9.94381L20.7132 9.19753L20.6385 9.94381ZM21.4584 10.0962L21.8022 9.42964L21.8022 9.42964L21.4584 10.0962ZM21.9299 10.6172L22.6274 10.3415V10.3415L21.9299 10.6172ZM21.93 13.5426L21.2325 13.2669L21.2325 13.2669L21.93 13.5426ZM21.4583 14.0638L21.8021 14.7304V14.7304L21.4583 14.0638ZM20.6386 14.2161L20.564 13.4698L20.5396 13.4723L20.5153 13.4763L20.6386 14.2161ZM20.6386 14.2161L20.7132 14.9624L20.7377 14.9599L20.7619 14.9559L20.6386 14.2161ZM19.1825 14.5109L18.7278 13.9145V13.9145L19.1825 14.5109ZM18.7979 15.4396L18.0546 15.5397V15.5397L18.7979 15.4396ZM19.619 16.6775L19.0385 17.1525V17.1525L19.619 16.6775ZM20.0908 17.3647L19.3764 17.5931V17.5931L20.0908 17.3647ZM20.0558 18.0669L19.3676 17.7686L19.3676 17.7686L20.0558 18.0669ZM19.5179 18.7037L20.0483 19.2341H20.0483L19.5179 18.7037ZM18.6243 19.5973L18.094 19.067L18.094 19.067L18.6243 19.5973ZM17.9873 20.1353L18.2855 20.8235L18.2855 20.8235L17.9873 20.1353ZM17.2854 20.1703L17.0571 20.8848H17.0571L17.2854 20.1703ZM16.5979 19.6984L17.0729 19.1179L17.0664 19.1127L16.5979 19.6984ZM16.5979 19.6984L16.1229 20.2789L16.1294 20.284L16.5979 19.6984ZM15.3595 18.877L15.4595 18.1337H15.4595L15.3595 18.877ZM14.4311 19.2616L15.0274 19.7165L15.0274 19.7165L14.4311 19.2616ZM14.1362 20.7183L13.3899 20.6436L14.1362 20.7183ZM13.9837 21.5385L13.3172 21.1946L13.3172 21.1946L13.9837 21.5385ZM13.4628 22.0099L13.187 21.3124H13.187L13.4628 22.0099ZM10.5373 22.0099L10.8131 21.3124L10.5373 22.0099ZM10.0162 21.5384L10.6828 21.1946V21.1946L10.0162 21.5384ZM9.86385 20.7185L9.11758 20.7931V20.7931L9.86385 20.7185ZM9.56892 19.262L8.97263 19.7169L8.97263 19.7169L9.56892 19.262ZM8.64057 18.8774L8.5406 18.1341H8.5406L8.64057 18.8774ZM7.40208 19.6988L6.92715 19.1183L6.91527 19.1281L6.9038 19.1383L7.40208 19.6988ZM7.40206 19.6988L7.87699 20.2793L7.88887 20.2696L7.90034 20.2594L7.40206 19.6988ZM6.71458 20.1708L6.9428 20.8852H6.9428L6.71458 20.1708ZM6.01272 20.1358L5.71454 20.824H5.71454L6.01272 20.1358ZM5.37561 19.5977L5.90594 19.0674H5.90594L5.37561 19.5977ZM4.48217 18.7043L3.95184 19.2346L3.95184 19.2346L4.48217 18.7043ZM3.94414 18.0672L4.63232 17.769H4.63232L3.94414 18.0672ZM3.90913 17.3653L4.62356 17.5936L4.62356 17.5936L3.90913 17.3653ZM4.3811 16.6779L4.96157 17.1528L4.96157 17.1528L4.3811 16.6779ZM5.20247 15.4394L5.94578 15.5394L5.20247 15.4394ZM4.81792 14.511L5.27282 13.9147L5.27282 13.9147L4.81792 14.511ZM3.36143 14.2161L3.2868 14.9624H3.2868L3.36143 14.2161ZM2.54161 14.0637L2.8854 13.3972H2.8854L2.54161 14.0637ZM2.07005 13.5426L1.37258 13.8184L1.37258 13.8184L2.07005 13.5426ZM2.07008 10.6172L1.37265 10.3413L1.37265 10.3413L2.07008 10.6172ZM2.54152 10.0962L2.19767 9.42971L2.19766 9.42971L2.54152 10.0962ZM3.36155 9.9438V9.1938H3.32414L3.28692 9.19752L3.36155 9.9438ZM3.36156 9.9438V10.6938H3.39896L3.43619 10.6901L3.36156 9.9438ZM4.81842 9.64877L4.36344 9.05253L4.36343 9.05253L4.81842 9.64877ZM5.20287 8.72062L5.94619 8.62074V8.62074L5.20287 8.72062ZM4.38128 7.48177L4.96175 7.00685H4.96175L4.38128 7.48177ZM3.90914 6.79401L4.6236 6.56588H4.6236L3.90914 6.79401ZM3.94413 6.09239L3.25591 5.7943L3.25591 5.7943L3.94413 6.09239ZM4.48233 5.45504L5.01266 5.98537L5.01266 5.98537L4.48233 5.45504ZM5.37565 4.56172L4.84532 4.03139L5.37565 4.56172ZM6.01277 4.02368L5.71459 3.3355L5.71459 3.3355L6.01277 4.02368ZM6.71463 3.98868L6.94285 3.27424L6.94285 3.27424L6.71463 3.98868ZM7.4022 4.46072L7.87713 3.88025V3.88025L7.4022 4.46072ZM8.64044 5.28202L8.74054 4.53873V4.53873L8.64044 5.28202ZM9.56907 4.89737L8.9727 4.44257L9.56907 4.89737ZM9.86387 3.44126L10.6101 3.51589V3.51589L9.86387 3.44126ZM10.0162 2.62166L9.34959 2.27794L9.34959 2.27794L10.0162 2.62166ZM10.5374 2.14997L10.8131 2.84746L10.8131 2.84746L10.5374 2.14997ZM13.4627 2.15L13.7385 1.45254L13.7385 1.45254L13.4627 2.15ZM14.8824 3.36677C14.8617 3.15984 14.8429 2.96815 14.8161 2.80816C14.788 2.64078 14.744 2.45931 14.6503 2.27777L13.3172 2.96536C13.3109 2.95314 13.3214 2.96474 13.3368 3.05654C13.3534 3.15571 13.3672 3.28927 13.3899 3.51602L14.8824 3.36677ZM15.0274 4.44299C15.0533 4.47703 15.0249 4.46482 14.9881 4.26018C14.9526 4.06271 14.9247 3.78979 14.8824 3.36677L13.3899 3.51602C13.4297 3.91387 13.4634 4.25659 13.5118 4.52585C13.559 4.78794 13.637 5.09354 13.8348 5.35277L15.0274 4.44299ZM15.2595 4.53913C15.1704 4.55111 15.0818 4.51441 15.0274 4.44299L13.8348 5.35277C14.2161 5.85267 14.8363 6.10957 15.4594 6.02574L15.2595 4.53913ZM16.1229 3.88062C15.7939 4.14982 15.5812 4.32312 15.4165 4.43762C15.2457 4.55628 15.217 4.54484 15.2595 4.53913L15.4594 6.02574C15.7826 5.98227 16.0538 5.82134 16.2725 5.66937C16.4972 5.51324 16.7634 5.29474 17.0728 5.04155L16.1229 3.88062ZM17.0571 3.27471C16.8625 3.33687 16.7031 3.43406 16.5648 3.53254C16.4327 3.62667 16.2839 3.74894 16.1229 3.88062L17.0728 5.04155C17.2492 4.89726 17.3533 4.81253 17.4352 4.75419C17.511 4.70018 17.5266 4.69938 17.5135 4.70357L17.0571 3.27471ZM18.2854 3.33598C17.8969 3.16761 17.4604 3.14585 17.0571 3.27471L17.5135 4.70357C17.5712 4.68516 17.6335 4.68827 17.689 4.71232L18.2854 3.33598ZM19.1546 4.03183C19.0076 3.88478 18.8717 3.74832 18.7496 3.6415C18.6218 3.52976 18.4728 3.41719 18.2854 3.33598L17.689 4.71232C17.6764 4.70685 17.6919 4.7092 17.7619 4.77048C17.8376 4.83669 17.9328 4.93135 18.094 5.09248L19.1546 4.03183ZM20.0481 4.92529L19.1546 4.03182L18.094 5.09249L18.9874 5.98595L20.0481 4.92529ZM20.744 5.79452C20.6627 5.6071 20.5502 5.45811 20.4384 5.33037C20.3316 5.20826 20.1951 5.07234 20.0481 4.92529L18.9874 5.98595C19.1486 6.14709 19.2432 6.2423 19.3094 6.31799C19.3707 6.38805 19.3731 6.40351 19.3676 6.3909L20.744 5.79452ZM20.8052 7.02282C20.9341 6.61947 20.9123 6.18307 20.744 5.79452L19.3676 6.3909C19.3917 6.4464 19.3948 6.50874 19.3764 6.56637L20.8052 7.02282ZM20.1993 7.95699C20.331 7.79604 20.4532 7.64721 20.5474 7.51508C20.6459 7.37686 20.7431 7.2174 20.8052 7.02283L19.3764 6.56637C19.3805 6.55327 19.3797 6.56889 19.3257 6.6447C19.2674 6.7266 19.1827 6.83076 19.0384 7.00713L20.1993 7.95699ZM19.5408 8.8205C19.5351 8.86293 19.5236 8.83421 19.6423 8.66347C19.7568 8.49871 19.9301 8.28602 20.1993 7.95699L19.0384 7.00713C18.7852 7.31659 18.5667 7.58277 18.4105 7.80744C18.2585 8.02612 18.0976 8.29738 18.0542 8.62053L19.5408 8.8205ZM19.6369 9.05259C19.5655 8.99811 19.5288 8.90951 19.5408 8.82049L18.0542 8.62053C17.9703 9.24364 18.2272 9.86383 18.7271 10.2452L19.6369 9.05259ZM20.7132 9.19753C20.2901 9.15523 20.0172 9.12738 19.8197 9.09184C19.6151 9.05501 19.6029 9.02662 19.6369 9.05259L18.7271 10.2452C18.9863 10.4429 19.292 10.521 19.5541 10.5681C19.8233 10.6166 20.166 10.6503 20.5639 10.6901L20.7132 9.19753ZM21.8022 9.42964C21.6207 9.336 21.4392 9.29198 21.2718 9.26387C21.1118 9.23701 20.9201 9.21823 20.7132 9.19753L20.5639 10.6901C20.7907 10.7128 20.9242 10.7265 21.0234 10.7432C21.1152 10.7586 21.1268 10.7691 21.1146 10.7628L21.8022 9.42964ZM22.6274 10.3415C22.4717 9.94771 22.1785 9.62374 21.8022 9.42964L21.1146 10.7628C21.1684 10.7905 21.2102 10.8368 21.2325 10.893L22.6274 10.3415ZM22.75 11.4482C22.75 11.2402 22.7504 11.0476 22.7396 10.8857C22.7283 10.7164 22.7025 10.5314 22.6274 10.3415L21.2325 10.893C21.2274 10.8802 21.2367 10.8928 21.2429 10.9857C21.2496 11.086 21.25 11.2203 21.25 11.4482H22.75ZM22.75 12.7118V11.4482H21.25V12.7118H22.75ZM22.6275 13.8183C22.7025 13.6284 22.7283 13.4434 22.7396 13.2741C22.7504 13.1123 22.75 12.9197 22.75 12.7118H21.25C21.25 12.9397 21.2496 13.0739 21.2429 13.1742C21.2367 13.2671 21.2274 13.2796 21.2325 13.2669L22.6275 13.8183ZM21.8021 14.7304C22.1785 14.5362 22.4718 14.2122 22.6275 13.8183L21.2325 13.2669C21.2103 13.3231 21.1684 13.3694 21.1146 13.3972L21.8021 14.7304ZM20.7133 14.9624C20.9201 14.9417 21.1118 14.9229 21.2718 14.896C21.4391 14.868 21.6205 14.8239 21.8021 14.7304L21.1146 13.3972C21.1268 13.3909 21.1152 13.4013 21.0234 13.4168C20.9243 13.4334 20.7907 13.4471 20.564 13.4698L20.7133 14.9624ZM20.7619 14.9559L20.7619 14.9559L20.5153 13.4763L20.5153 13.4763L20.7619 14.9559ZM19.6373 15.1073C19.6033 15.1332 19.6155 15.1048 19.8201 15.068C20.0175 15.0325 20.2903 15.0047 20.7132 14.9624L20.564 13.4698C20.1663 13.5096 19.8236 13.5433 19.5545 13.5917C19.2925 13.6389 18.9869 13.7168 18.7278 13.9145L19.6373 15.1073ZM19.5412 15.3394C19.5292 15.2504 19.5659 15.1617 19.6373 15.1073L18.7278 13.9145C18.2276 14.2959 17.9706 14.9163 18.0546 15.5397L19.5412 15.3394ZM20.1994 16.2026C19.9303 15.8737 19.7571 15.6611 19.6426 15.4964C19.524 15.3257 19.5354 15.297 19.5412 15.3394L18.0546 15.5397C18.0981 15.8627 18.259 16.1339 18.4109 16.3525C18.567 16.577 18.7854 16.8431 19.0385 17.1525L20.1994 16.2026ZM20.8052 17.1364C20.743 16.9419 20.6459 16.7825 20.5474 16.6444C20.4533 16.5123 20.3311 16.3635 20.1994 16.2026L19.0385 17.1525C19.1828 17.3288 19.2675 17.4329 19.3258 17.5148C19.3798 17.5905 19.3806 17.6062 19.3764 17.5931L20.8052 17.1364ZM20.7439 18.3652C20.9124 17.9765 20.9342 17.5399 20.8052 17.1364L19.3764 17.5931C19.3948 17.6507 19.3917 17.7131 19.3676 17.7686L20.7439 18.3652ZM20.0483 19.2341C20.1952 19.0871 20.3317 18.9512 20.4384 18.8291C20.5502 18.7014 20.6627 18.5525 20.7439 18.3652L19.3676 17.7686C19.3731 17.756 19.3708 17.7715 19.3095 17.8415C19.2433 17.9171 19.1487 18.0123 18.9876 18.1734L20.0483 19.2341ZM19.1547 20.1276L20.0483 19.2341L18.9876 18.1734L18.094 19.067L19.1547 20.1276ZM18.2855 20.8235C18.4729 20.7423 18.6219 20.6297 18.7496 20.518C18.8717 20.4112 19.0076 20.2747 19.1547 20.1276L18.094 19.067C17.9329 19.2281 17.8377 19.3228 17.762 19.389C17.6919 19.4503 17.6765 19.4526 17.6891 19.4472L18.2855 20.8235ZM17.0571 20.8848C17.4605 21.0136 17.8969 20.9919 18.2855 20.8235L17.6891 19.4471C17.6336 19.4712 17.5712 19.4743 17.5136 19.4559L17.0571 20.8848ZM16.123 20.2788C16.2839 20.4105 16.4328 20.5328 16.5649 20.6269C16.7031 20.7254 16.8626 20.8226 17.0571 20.8848L17.5136 19.4559C17.5267 19.4601 17.5111 19.4593 17.4353 19.4053C17.3534 19.3469 17.2492 19.2622 17.0728 19.1179L16.123 20.2788ZM16.1294 20.284L16.1294 20.284L17.0664 19.1127L17.0664 19.1127L16.1294 20.284ZM15.2595 19.6203C15.2171 19.6146 15.2458 19.6032 15.4165 19.7218C15.5813 19.8363 15.794 20.0096 16.123 20.2788L17.0728 19.1179C16.7634 18.8647 16.4972 18.6462 16.2726 18.4901C16.0539 18.3381 15.7826 18.1772 15.4595 18.1337L15.2595 19.6203ZM15.0274 19.7165C15.0819 19.6451 15.1705 19.6084 15.2595 19.6203L15.4595 18.1337C14.8364 18.0499 14.2161 18.3068 13.8348 18.8067L15.0274 19.7165ZM14.8824 20.7929C14.9248 20.3698 14.9526 20.0968 14.9881 19.8993C15.025 19.6946 15.0534 19.6824 15.0274 19.7165L13.8348 18.8067C13.637 19.0659 13.559 19.3716 13.5119 19.6337C13.4634 19.903 13.4297 20.2457 13.3899 20.6436L14.8824 20.7929ZM14.6502 21.8823C14.7439 21.7007 14.788 21.5192 14.8161 21.3518C14.843 21.1917 14.8617 20.9999 14.8824 20.7929L13.3899 20.6436C13.3672 20.8705 13.3535 21.0041 13.3368 21.1034C13.3214 21.1952 13.3109 21.2068 13.3172 21.1946L14.6502 21.8823ZM13.7386 22.7073C14.1323 22.5516 14.4562 22.2585 14.6502 21.8823L13.3172 21.1946C13.2895 21.2483 13.2432 21.2902 13.187 21.3124L13.7386 22.7073ZM12.6316 22.83C12.8397 22.83 13.0323 22.8303 13.1942 22.8195C13.3636 22.8082 13.5486 22.7824 13.7386 22.7073L13.187 21.3124C13.1997 21.3074 13.1872 21.3167 13.0943 21.3229C12.9939 21.3296 12.8596 21.33 12.6316 21.33V22.83ZM11.3682 22.83H12.6316V21.33H11.3682V22.83ZM10.2615 22.7074C10.4515 22.7825 10.6364 22.8082 10.8058 22.8195C10.9677 22.8303 11.1603 22.83 11.3682 22.83V21.33C11.1404 21.33 11.0061 21.3296 10.9057 21.3229C10.8129 21.3167 10.8003 21.3074 10.8131 21.3124L10.2615 22.7074ZM9.34968 21.8822C9.54379 22.2585 9.86775 22.5517 10.2615 22.7074L10.8131 21.3124C10.7568 21.2902 10.7105 21.2483 10.6828 21.1946L9.34968 21.8822ZM9.11758 20.7931C9.13827 21.0001 9.15705 21.1918 9.18392 21.3518C9.21202 21.5191 9.25605 21.7006 9.34968 21.8822L10.6828 21.1946C10.6891 21.2068 10.6786 21.1952 10.6632 21.1034C10.6466 21.0042 10.6328 20.8706 10.6101 20.6439L9.11758 20.7931ZM8.97263 19.7169C8.94666 19.6828 8.97506 19.695 9.01189 19.8997C9.04742 20.0972 9.07527 20.3701 9.11758 20.7931L10.6101 20.6439C10.5703 20.246 10.5366 19.9033 10.4882 19.634C10.441 19.3719 10.363 19.0663 10.1652 18.807L8.97263 19.7169ZM8.74054 19.6207C8.82956 19.6088 8.91815 19.6455 8.97263 19.7169L10.1652 18.8071C9.78387 18.3072 9.1637 18.0503 8.5406 18.1341L8.74054 19.6207ZM7.877 20.2793C8.20605 20.0101 8.41875 19.8368 8.58352 19.7222C8.75426 19.6036 8.78298 19.615 8.74054 19.6207L8.5406 18.1341C8.21744 18.1776 7.94617 18.3385 7.72748 18.4905C7.50281 18.6466 7.23661 18.8651 6.92715 19.1183L7.877 20.2793ZM7.90034 20.2594L7.90035 20.2594L6.9038 19.1383L6.90379 19.1383L7.90034 20.2594ZM6.9428 20.8852C7.13738 20.8231 7.29684 20.7259 7.43507 20.6274C7.5672 20.5333 7.71604 20.411 7.87699 20.2793L6.92714 19.1184C6.75076 19.2627 6.6466 19.3474 6.56469 19.4057C6.48888 19.4597 6.47327 19.4605 6.48636 19.4564L6.9428 20.8852ZM5.71454 20.824C6.10307 20.9923 6.53946 21.0141 6.9428 20.8852L6.48636 19.4564C6.42874 19.4748 6.3664 19.4717 6.3109 19.4476L5.71454 20.824ZM4.84528 20.1281C4.99233 20.2751 5.12826 20.4116 5.25037 20.5184C5.37811 20.6302 5.52711 20.7428 5.71454 20.824L6.3109 19.4476C6.32351 19.4531 6.30805 19.4507 6.23799 19.3894C6.1623 19.3232 6.06708 19.2286 5.90594 19.0674L4.84528 20.1281ZM3.95184 19.2346L4.84528 20.1281L5.90594 19.0674L5.0125 18.174L3.95184 19.2346ZM3.25596 18.3654C3.33717 18.5528 3.44975 18.7018 3.56149 18.8295C3.66831 18.9517 3.80479 19.0876 3.95184 19.2346L5.0125 18.174C4.85136 18.0128 4.75669 17.9176 4.69048 17.8419C4.62919 17.7719 4.62685 17.7564 4.63232 17.769L3.25596 18.3654ZM3.1947 17.1371C3.06585 17.5405 3.08761 17.9769 3.25596 18.3654L4.63232 17.769C4.60827 17.7135 4.60516 17.6512 4.62356 17.5936L3.1947 17.1371ZM3.80064 16.2029C3.66895 16.3639 3.54667 16.5127 3.45253 16.6448C3.35405 16.7831 3.25686 16.9425 3.1947 17.1371L4.62356 17.5936C4.61938 17.6067 4.62017 17.591 4.67419 17.5152C4.73254 17.4333 4.81726 17.3292 4.96157 17.1528L3.80064 16.2029ZM4.45917 15.3394C4.46488 15.297 4.47632 15.3257 4.35766 15.4964C4.24315 15.6612 4.06985 15.8739 3.80064 16.2029L4.96157 17.1528C5.21476 16.8433 5.43327 16.5771 5.5894 16.3525C5.74138 16.1338 5.90231 15.8625 5.94578 15.5394L4.45917 15.3394ZM4.36303 15.1073C4.43444 15.1618 4.47114 15.2504 4.45917 15.3394L5.94578 15.5394C6.0296 14.9163 5.7727 14.2961 5.27282 13.9147L4.36303 15.1073ZM3.2868 14.9624C3.70983 15.0047 3.98275 15.0325 4.18022 15.0681C4.38486 15.1049 4.39707 15.1333 4.36303 15.1073L5.27282 13.9147C5.01358 13.717 4.70798 13.6389 4.44589 13.5918C4.17663 13.5433 3.8339 13.5096 3.43606 13.4698L3.2868 14.9624ZM2.19782 14.7303C2.37936 14.8239 2.56083 14.8679 2.7282 14.896C2.88819 14.9229 3.07988 14.9417 3.2868 14.9624L3.43606 13.4698C3.20931 13.4471 3.07575 13.4334 2.97658 13.4167C2.88479 13.4013 2.87319 13.3909 2.8854 13.3972L2.19782 14.7303ZM1.37258 13.8184C1.52828 14.2122 1.82148 14.5362 2.19782 14.7303L2.8854 13.3972C2.83164 13.3694 2.78975 13.3231 2.76751 13.2669L1.37258 13.8184ZM1.25 12.7117C1.25 12.9197 1.24961 13.1123 1.26042 13.2742C1.27173 13.4435 1.29748 13.6285 1.37258 13.8184L2.76751 13.2669C2.77257 13.2797 2.76329 13.2671 2.75709 13.1742C2.75039 13.0739 2.75 12.9396 2.75 12.7117H1.25ZM1.25 11.4483V12.7117H2.75V11.4483H1.25ZM1.37265 10.3413C1.29751 10.5313 1.27174 10.7163 1.26043 10.8857C1.24961 11.0476 1.25 11.2403 1.25 11.4483H2.75C2.75 11.2204 2.75039 11.0861 2.75709 10.9857C2.7633 10.8928 2.77258 10.8802 2.76752 10.893L1.37265 10.3413ZM2.19766 9.42971C1.82145 9.6238 1.52834 9.94768 1.37265 10.3413L2.76752 10.893C2.78976 10.8368 2.83164 10.7905 2.88538 10.7628L2.19766 9.42971ZM3.28692 9.19752C3.07995 9.21822 2.88821 9.237 2.72817 9.26388C2.56076 9.29199 2.37924 9.33603 2.19767 9.42971L2.88538 10.7628C2.87316 10.7691 2.88477 10.7586 2.97658 10.7432C3.07578 10.7265 3.20937 10.7128 3.43618 10.6901L3.28692 9.19752ZM3.36155 9.1938H3.36155V10.6938H3.36155V9.1938ZM3.36156 9.1938H3.36155V10.6938H3.36156V9.1938ZM4.36343 9.05253C4.39748 9.02655 4.38527 9.05496 4.18059 9.0918C3.98306 9.12735 3.71006 9.15521 3.28693 9.19752L3.43619 10.6901C3.83414 10.6503 4.17695 10.6166 4.44628 10.5681C4.70844 10.5209 5.01412 10.4428 5.2734 10.245L4.36343 9.05253ZM4.45955 8.8205C4.47151 8.90949 4.43482 8.99806 4.36344 9.05253L5.2734 10.245C5.77308 9.86369 6.02989 9.24369 5.94619 8.62074L4.45955 8.8205ZM3.80081 7.9567C4.07011 8.28585 4.24347 8.4986 4.35801 8.66342C4.47671 8.83423 4.46525 8.86295 4.45955 8.8205L5.94619 8.62074C5.90275 8.29749 5.74179 8.02615 5.58977 7.8074C5.43359 7.58267 5.21502 7.3164 4.96175 7.00685L3.80081 7.9567ZM3.19467 7.02214C3.25683 7.2168 3.35405 7.37632 3.45257 7.5146C3.54674 7.64679 3.66906 7.79568 3.80081 7.9567L4.96175 7.00685C4.81738 6.8304 4.73261 6.72618 4.67424 6.64425C4.6202 6.5684 4.61942 6.55278 4.6236 6.56588L3.19467 7.02214ZM3.25591 5.7943C3.08768 6.1827 3.06593 6.61892 3.19467 7.02214L4.6236 6.56588C4.60521 6.50828 4.60831 6.44596 4.63235 6.39048L3.25591 5.7943ZM3.952 4.92471C3.8049 5.07182 3.66838 5.20779 3.56152 5.32995C3.44974 5.45774 3.33713 5.60679 3.25591 5.7943L4.63235 6.39048C4.62688 6.40309 4.62922 6.38763 4.69053 6.31754C4.75676 6.24183 4.85147 6.14657 5.01266 5.98537L3.952 4.92471ZM4.84532 4.03139L3.952 4.92471L5.01266 5.98537L5.90598 5.09205L4.84532 4.03139ZM4.84533 4.03139L4.84532 4.03139L5.90598 5.09205L5.90599 5.09205L4.84533 4.03139ZM5.71459 3.3355C5.52716 3.41671 5.37816 3.52929 5.25042 3.64104C5.12831 3.74786 4.99238 3.88434 4.84533 4.03139L5.90599 5.09205C6.06713 4.93091 6.16235 4.83624 6.23804 4.77003C6.3081 4.70874 6.32356 4.7064 6.31094 4.71186L5.71459 3.3355ZM6.94285 3.27424C6.5395 3.1454 6.10312 3.16716 5.71459 3.3355L6.31094 4.71186C6.36645 4.68781 6.42879 4.68471 6.48641 4.70311L6.94285 3.27424ZM7.87713 3.88025C7.71614 3.74854 7.56729 3.62625 7.43514 3.5321C7.29691 3.43361 7.13744 3.3364 6.94285 3.27424L6.48641 4.70311C6.4733 4.69893 6.48892 4.69972 6.56476 4.75375C6.64668 4.81211 6.75087 4.89686 6.92727 5.04119L7.87713 3.88025ZM8.74054 4.53873C8.78298 4.54445 8.75427 4.55588 8.58353 4.43722C8.41879 4.32271 8.20612 4.14943 7.87713 3.88025L6.92727 5.04119C7.23669 5.29435 7.50284 5.51282 7.72745 5.66894C7.94608 5.82089 8.21728 5.9818 8.54034 6.02531L8.74054 4.53873ZM8.9727 4.44257C8.91822 4.51401 8.82959 4.55072 8.74054 4.53873L8.54034 6.02531C9.16364 6.10925 9.78405 5.85227 10.1654 5.35218L8.9727 4.44257ZM9.11759 3.36663C9.0753 3.78954 9.04746 4.06239 9.01194 4.25981C8.97513 4.46439 8.94674 4.47661 8.9727 4.44257L10.1654 5.35218C10.3631 5.09299 10.4411 4.78747 10.4882 4.52544C10.5367 4.25625 10.5704 3.91363 10.6101 3.51589L9.11759 3.36663ZM9.34959 2.27794C9.256 2.45943 9.212 2.64086 9.18391 2.80818C9.15705 2.96813 9.13828 3.15977 9.11759 3.36663L10.6101 3.51589C10.6328 3.28921 10.6466 3.15568 10.6632 3.05654C10.6786 2.96477 10.6891 2.95317 10.6828 2.96538L9.34959 2.27794ZM10.2617 1.45247C9.86779 1.60817 9.54371 1.90146 9.34959 2.27794L10.6828 2.96538C10.7105 2.9116 10.7568 2.8697 10.8131 2.84746L10.2617 1.45247ZM11.3681 1.32996C11.1602 1.32996 10.9676 1.32957 10.8058 1.34037C10.6365 1.35168 10.4516 1.37741 10.2617 1.45247L10.8131 2.84746C10.8003 2.85251 10.8129 2.84324 10.9057 2.83704C11.0061 2.83034 11.1403 2.82996 11.3681 2.82996V1.32996ZM12.6318 1.32996H11.3681V2.82996H12.6318V1.32996ZM13.7385 1.45254C13.5485 1.37744 13.3635 1.35169 13.1942 1.34038C13.0323 1.32957 12.8397 1.32996 12.6318 1.32996V2.82996C12.8597 2.82996 12.9939 2.83034 13.0943 2.83704C13.1871 2.84325 13.1997 2.85252 13.1869 2.84747L13.7385 1.45254ZM14.6503 2.27778C14.4562 1.90143 14.1322 1.60823 13.7385 1.45254L13.1869 2.84747C13.2432 2.86971 13.2895 2.9116 13.3172 2.96536L14.6503 2.27778ZM15.25 12.08C15.25 13.8749 13.7949 15.33 12 15.33V16.83C14.6234 16.83 16.75 14.7033 16.75 12.08H15.25ZM12 8.82996C13.7949 8.82996 15.25 10.285 15.25 12.08H16.75C16.75 9.4566 14.6234 7.32996 12 7.32996V8.82996ZM8.75 12.08C8.75 10.285 10.2051 8.82996 12 8.82996V7.32996C9.37665 7.32996 7.25 9.4566 7.25 12.08H8.75ZM12 15.33C10.2051 15.33 8.75 13.8749 8.75 12.08H7.25C7.25 14.7033 9.37665 16.83 12 16.83V15.33Z" fill="#282828"/>
</svg>
