<svg width="24" height="24" viewBox="0 0 24 24" fill="none" xmlns="http://www.w3.org/2000/svg">
<path fill-rule="evenodd" clip-rule="evenodd" d="M12 20C16.4183 20 20 16.4183 20 12C20 7.58172 16.4183 4 12 4C7.58172 4 4 7.58172 4 12C4 16.4183 7.58172 20 12 20Z" fill="#4BC91E"/>
<path d="M12.5123 12.9839L12.0514 12.5998L12.5123 12.9839ZM11.0884 14.1839L11.1155 14.7833L11.0884 14.1839ZM19.4 12C19.4 16.0869 16.0869 19.4 12 19.4V20.6C16.7496 20.6 20.6 16.7496 20.6 12H19.4ZM12 4.6C16.0869 4.6 19.4 7.91309 19.4 12H20.6C20.6 7.25035 16.7496 3.4 12 3.4V4.6ZM4.6 12C4.6 7.91309 7.91309 4.6 12 4.6V3.4C7.25035 3.4 3.4 7.25035 3.4 12H4.6ZM12 19.4C7.91309 19.4 4.6 16.0869 4.6 12H3.4C3.4 16.7496 7.25035 20.6 12 20.6V19.4ZM8.01931 12.4239L9.13737 13.542L9.9859 12.6935L8.86784 11.5754L8.01931 12.4239ZM12.9732 13.368L16.0156 9.71712L15.0938 8.9489L12.0514 12.5998L12.9732 13.368ZM9.13737 13.542C9.48687 13.8915 9.79236 14.1989 10.0694 14.4084C10.3603 14.6284 10.6978 14.8022 11.1155 14.7833L11.0612 13.5845C11.0384 13.5856 10.9745 13.5884 10.7932 13.4513C10.5981 13.3037 10.3605 13.0681 9.9859 12.6935L9.13737 13.542ZM12.0514 12.5998C11.7122 13.0067 11.4969 13.263 11.316 13.4276C11.1478 13.5805 11.084 13.5835 11.0612 13.5845L11.1155 14.7833C11.5333 14.7643 11.8537 14.5606 12.1234 14.3153C12.3804 14.0815 12.6568 13.7477 12.9732 13.368L12.0514 12.5998Z" fill="white"/>
</svg>
