<svg width="38" height="38" viewBox="0 0 38 38" fill="none" xmlns="http://www.w3.org/2000/svg">
<g clip-path="url(#clip0_2666_21553)">
<path d="M25.2208 12.0974L10.4458 17.7948C9.4375 18.1998 9.44333 18.7623 10.2608 19.0132L14.0542 20.1965L22.8308 14.659C23.2458 14.4065 23.625 14.5423 23.3133 14.819L16.2025 21.2365H16.2008L16.2025 21.2373L15.9408 25.1474C16.3242 25.1474 16.4933 24.9715 16.7083 24.764L18.5508 22.9723L22.3833 25.8032C23.09 26.1923 23.5975 25.9923 23.7733 25.149L26.2892 13.2924C26.5467 12.2599 25.895 11.7924 25.2208 12.0974Z" fill="#00CC69"/>
</g>
<ellipse cx="19" cy="18.7907" rx="18" ry="17.7907" stroke="#00CC69"/>
<defs>
<clipPath id="clip0_2666_21553">
<rect width="20" height="19.7674" fill="white" transform="translate(8 8.90723)"/>
</clipPath>
</defs>
</svg>
