<svg width="38" height="38" viewBox="0 0 38 38" fill="none" xmlns="http://www.w3.org/2000/svg">
<path d="M24.9736 16.0917C25.5607 15.6452 26.089 15.1093 26.5 14.4841C25.9716 14.7223 25.3552 14.9009 24.7387 14.9605C25.3845 14.5734 25.8542 13.978 26.089 13.2338C25.502 13.591 24.8268 13.859 24.1517 14.0078C23.5646 13.3826 22.772 13.0254 21.8914 13.0254C20.1888 13.0254 18.8092 14.4246 18.8092 16.1513C18.8092 16.3894 18.8386 16.6276 18.8973 16.8658C16.3434 16.7169 14.0538 15.4666 12.5274 13.591C12.2632 14.0376 12.1164 14.5734 12.1164 15.1688C12.1164 16.2406 12.6448 17.1932 13.4961 17.7589C12.9971 17.7291 12.498 17.61 12.0871 17.3718V17.4016C12.0871 18.9199 13.1438 20.1702 14.5528 20.468C14.318 20.5275 14.0245 20.587 13.7603 20.587C13.5548 20.587 13.3787 20.5573 13.1732 20.5275C13.5548 21.7778 14.6996 22.6709 16.0499 22.7007C14.9932 23.5343 13.6722 24.0404 12.2339 24.0404C11.9697 24.0404 11.7348 24.0106 11.5 23.9808C12.8503 24.8739 14.4648 25.38 16.226 25.38C21.8914 25.38 24.9736 20.6466 24.9736 16.5085C24.9736 16.3597 24.9736 16.2406 24.9736 16.0917Z" fill="#00CC69"/>
<ellipse cx="19" cy="18.7907" rx="18" ry="17.7907" stroke="#00CC69"/>
</svg>
