<svg width="38" height="38" viewBox="0 0 38 38" fill="none" xmlns="http://www.w3.org/2000/svg">
<ellipse cx="19" cy="18.7907" rx="18" ry="17.7907" stroke="#00CC69"/>
<path d="M28.5612 14.313C28.3419 13.3755 27.6472 12.6333 26.8062 12.3989C25.234 11.9302 19.0183 11.9302 19.0183 11.9302C19.0183 11.9302 12.766 11.9302 11.1938 12.3989C10.3528 12.6333 9.65814 13.3755 9.43876 14.313C9 15.9536 9 19.4692 9 19.4692C9 19.4692 9 22.9458 9.43876 24.6255C9.65814 25.563 10.3528 26.2661 11.1938 26.5005C12.766 26.9302 19.0183 26.9302 19.0183 26.9302C19.0183 26.9302 25.234 26.9302 26.8062 26.5005C27.6472 26.2661 28.3419 25.563 28.5612 24.6255C29 22.9458 29 19.4692 29 19.4692C29 19.4692 29 15.9536 28.5612 14.313ZM16.9707 22.6333V16.3052L22.1627 19.4692L16.9707 22.6333Z" fill="#00CC69"/>
</svg>
