<svg width="34" height="34" viewBox="0 0 34 34" fill="none" xmlns="http://www.w3.org/2000/svg">
<path d="M10.8602 14.9321C10.7134 14.9856 10.619 15.1259 10.619 15.2822V17.9752C10.619 18.6735 10.2986 19.3333 9.7499 19.7651L6.79544 22.0904C6.3816 22.4161 6.06356 22.6291 5.53773 22.6582V22.6582C4.84645 22.6965 4.05479 22.3158 3.57881 21.813L2.61678 20.7969C1.78359 19.9168 1.1027 18.7936 1.34172 17.6055V17.6055C1.52727 16.6832 7.65028 11.334 16.3709 11.334C25.0915 11.334 31.2145 16.6832 31.4 17.6055V17.6055C31.6391 18.7936 30.9582 19.9168 30.125 20.7969L29.1629 21.813C28.687 22.3158 27.8953 22.6965 27.204 22.6582V22.6582C26.6782 22.6291 26.3602 22.4161 25.9463 22.0904L22.9919 19.7651C22.4431 19.3333 22.1228 18.6735 22.1228 17.9752V15.2762C22.1228 15.123 22.0302 14.984 21.8877 14.9278C17.5294 13.2109 12.9857 14.1582 10.8602 14.9321Z" fill="white"/>
</svg>
