<svg
  width="24"
  height="25"
  viewBox="0 0 24 25"
  fill="none"
  xmlns="http://www.w3.org/2000/svg"
>
  <path
    d="M10.7896 15.6703C10.5896 15.6703 10.3996 15.5903 10.2596 15.4503L7.83957 13.0303C7.54957 12.7403 7.54957 12.2603 7.83957 11.9703C8.12957 11.6803 8.60957 11.6803 8.89957 11.9703L10.7896 13.8603L15.0896 9.56027C15.3796 9.27027 15.8596 9.27027 16.1496 9.56027C16.4396 9.85027 16.4396 10.3303 16.1496 10.6203L11.3196 15.4503C11.1796 15.5903 10.9896 15.6703 10.7896 15.6703Z"
    fill="#4EB565"
  />
  <path
    d="M11.9999 23.25C11.3699 23.25 10.7399 23.04 10.2499 22.62L8.66988 21.26C8.50988 21.12 8.10988 20.98 7.89988 20.98H6.17988C4.69988 20.98 3.49988 19.78 3.49988 18.3V16.59C3.49988 16.38 3.35988 15.99 3.21988 15.83L1.86988 14.24C1.04988 13.27 1.04988 11.74 1.86988 10.77L3.21988 9.18C3.35988 9.02 3.49988 8.63 3.49988 8.42V6.7C3.49988 5.22 4.69988 4.02 6.17988 4.02H7.90988C8.11988 4.02 8.51988 3.87 8.67988 3.74L10.2599 2.38C11.2399 1.54 12.7699 1.54 13.7499 2.38L15.3299 3.74C15.4899 3.88 15.8899 4.02 16.0999 4.02H17.7999C19.2799 4.02 20.4799 5.22 20.4799 6.7V8.4C20.4799 8.61 20.6299 9.01 20.7699 9.17L22.1299 10.75C22.9699 11.73 22.9699 13.26 22.1299 14.24L20.7699 15.82C20.6299 15.98 20.4799 16.38 20.4799 16.59V18.29C20.4799 19.77 19.2799 20.97 17.7999 20.97H16.0999C15.8899 20.97 15.4899 21.12 15.3299 21.25L13.7499 22.61C13.2599 23.04 12.6299 23.25 11.9999 23.25ZM6.17988 5.52C5.52988 5.52 4.99988 6.05 4.99988 6.7V8.41C4.99988 8.98 4.72988 9.71 4.35988 10.14L3.00988 11.73C2.65988 12.14 2.65988 12.85 3.00988 13.26L4.35988 14.85C4.72988 15.29 4.99988 16.01 4.99988 16.58V18.29C4.99988 18.94 5.52988 19.47 6.17988 19.47H7.90988C8.48988 19.47 9.21988 19.74 9.65988 20.12L11.2399 21.48C11.6499 21.83 12.3699 21.83 12.7799 21.48L14.3599 20.12C14.7999 19.75 15.5299 19.47 16.1099 19.47H17.8099C18.4599 19.47 18.9899 18.94 18.9899 18.29V16.59C18.9899 16.01 19.2599 15.28 19.6399 14.84L20.9999 13.26C21.3499 12.85 21.3499 12.13 20.9999 11.72L19.6399 10.14C19.2599 9.7 18.9899 8.97 18.9899 8.39V6.7C18.9899 6.05 18.4599 5.52 17.8099 5.52H16.1099C15.5299 5.52 14.7999 5.25 14.3599 4.87L12.7799 3.51C12.3699 3.16 11.6499 3.16 11.2399 3.51L9.65988 4.88C9.21988 5.25 8.47988 5.52 7.90988 5.52H6.17988Z"
    fill="#4EB565"
  />
</svg>
