<svg
  width="24"
  height="25"
  viewBox="0 0 24 25"
  fill="none"
  xmlns="http://www.w3.org/2000/svg"
>
  <path
    d="M20 12.0801C20 8.30884 20 6.42322 18.8284 5.25165C17.6569 4.08008 15.7712 4.08008 12 4.08008V4.08008C8.22876 4.08008 6.34315 4.08008 5.17157 5.25165C4 6.42322 4 8.30884 4 12.0801V18.0801C4 19.0229 4 19.4943 4.29289 19.7872C4.58579 20.0801 5.05719 20.0801 6 20.0801H12C15.7712 20.0801 17.6569 20.0801 18.8284 18.9085C20 17.7369 20 15.8513 20 12.0801V12.0801Z"
    stroke="#282828"
    stroke-width="1.5"
  />
  <path
    d="M9 10.0801L15 10.0801"
    stroke="#282828"
    stroke-width="1.5"
    stroke-linecap="round"
    stroke-linejoin="round"
  />
  <path
    d="M9 14.0801H12"
    stroke="#282828"
    stroke-width="1.5"
    stroke-linecap="round"
    stroke-linejoin="round"
  />
</svg>
